<?xml version="1.0" encoding="utf-8"?>
<!-- Generator: Adobe Illustrator 26.0.0, SVG Export Plug-In . SVG Version: 6.00 Build 0)  -->
<svg version="1.1" xmlns="http://www.w3.org/2000/svg" xmlns:xlink="http://www.w3.org/1999/xlink" x="0px" y="0px"
	 viewBox="0 0 64 64" enable-background="new 0 0 64 64" xml:space="preserve">
<g id="图层_2">
	<circle fill="#E3E3F1" cx="31.891" cy="31.925" r="31.957"/>
</g>
<g id="图层_1">
	<g>
		<radialGradient id="SVGID_1_" cx="34.3144" cy="31.9247" r="24.0186" gradientUnits="userSpaceOnUse">
			<stop  offset="0.5744" style="stop-color:#C7281D;stop-opacity:0"/>
			<stop  offset="0.6771" style="stop-color:#CA2A23;stop-opacity:0.2994"/>
			<stop  offset="0.7977" style="stop-color:#CE2D2D;stop-opacity:0.6512"/>
			<stop  offset="0.8168" style="stop-color:#C22A2B;stop-opacity:0.6794"/>
			<stop  offset="0.8664" style="stop-color:#A72327;stop-opacity:0.7526"/>
			<stop  offset="0.9144" style="stop-color:#932025;stop-opacity:0.8236"/>
			<stop  offset="0.9599" style="stop-color:#871F23;stop-opacity:0.8907"/>
			<stop  offset="1" style="stop-color:#831E23;stop-opacity:0.95"/>
		</radialGradient>
		<path fill="url(#SVGID_1_)" d="M14.085,5.81c0.629,0,7.598-0.059,9.148,0.079c1.552,0.137,3.789,1.472,4.458,2.218
			c0.667,0.746,28.331,40.226,28.331,40.226s-5.146,4.967-5.619,9.679c-2.217,0.628-6.957-6.556-6.957-6.556L12.631,7.834
			C12.392,6.517,14.085,5.81,14.085,5.81z"/>
		
			<radialGradient id="SVGID_00000103946170466500963160000014520993636448732084_" cx="32.7971" cy="31.8263" r="23.6362" gradientUnits="userSpaceOnUse">
			<stop  offset="0.5744" style="stop-color:#1D2088;stop-opacity:0"/>
			<stop  offset="0.6277" style="stop-color:#1E2A8C;stop-opacity:0.1554"/>
			<stop  offset="0.7299" style="stop-color:#214399;stop-opacity:0.4535"/>
			<stop  offset="0.7977" style="stop-color:#2355A5;stop-opacity:0.6512"/>
			<stop  offset="0.8489" style="stop-color:#244DA0;stop-opacity:0.7269"/>
			<stop  offset="0.9291" style="stop-color:#25459A;stop-opacity:0.8453"/>
			<stop  offset="1" style="stop-color:#264299;stop-opacity:0.95"/>
		</radialGradient>
		<path fill="url(#SVGID_00000103946170466500963160000014520993636448732084_)" d="M46.163,6.63L11.838,55.53
			c-0.177,2.003,1.355,2.298,1.355,2.298s8.54,0.059,8.54,0s2.827,0.001,6.008-3.473c2.473-3.652,26.031-37.46,26.031-37.46v-0.51
			c0,0-2.964-1.198-3.534-10.189C49.531,5.095,46.163,6.63,46.163,6.63z"/>
	</g>
	<g>
		
			<radialGradient id="SVGID_00000024723380812732368300000005811514848156610975_" cx="29.1648" cy="32" r="24.0186" gradientUnits="userSpaceOnUse">
			<stop  offset="0.5744" style="stop-color:#C7281D;stop-opacity:0"/>
			<stop  offset="0.6771" style="stop-color:#CA2A23;stop-opacity:0.2994"/>
			<stop  offset="0.7977" style="stop-color:#CE2D2D;stop-opacity:0.6512"/>
			<stop  offset="0.8168" style="stop-color:#C22A2B;stop-opacity:0.6794"/>
			<stop  offset="0.8664" style="stop-color:#A72327;stop-opacity:0.7526"/>
			<stop  offset="0.9144" style="stop-color:#932025;stop-opacity:0.8236"/>
			<stop  offset="0.9599" style="stop-color:#871F23;stop-opacity:0.8907"/>
			<stop  offset="1" style="stop-color:#831E23;stop-opacity:0.95"/>
		</radialGradient>
		<path fill="url(#SVGID_00000024723380812732368300000005811514848156610975_)" d="M8.935,5.886c0.629,0,7.598-0.059,9.148,0.079
			c1.552,0.137,3.789,1.472,4.458,2.218c0.667,0.746,28.331,40.226,28.331,40.226s-5.146,4.967-5.619,9.679
			c-2.217,0.628-6.957-6.556-6.957-6.556L7.481,7.909C7.242,6.592,8.935,5.886,8.935,5.886z"/>
		
			<radialGradient id="SVGID_00000067918740986713308930000001035075643806660996_" cx="27.6474" cy="31.9016" r="23.6362" gradientUnits="userSpaceOnUse">
			<stop  offset="0.5744" style="stop-color:#1D2088;stop-opacity:0"/>
			<stop  offset="0.6277" style="stop-color:#1E2A8C;stop-opacity:0.1554"/>
			<stop  offset="0.7299" style="stop-color:#214399;stop-opacity:0.4535"/>
			<stop  offset="0.7977" style="stop-color:#2355A5;stop-opacity:0.6512"/>
			<stop  offset="0.8489" style="stop-color:#244DA0;stop-opacity:0.7269"/>
			<stop  offset="0.9291" style="stop-color:#25459A;stop-opacity:0.8453"/>
			<stop  offset="1" style="stop-color:#264299;stop-opacity:0.95"/>
		</radialGradient>
		<path fill="url(#SVGID_00000067918740986713308930000001035075643806660996_)" d="M41.013,6.705L6.688,55.606
			c-0.177,2.003,1.355,2.298,1.355,2.298s8.54,0.059,8.54,0c0-0.059,2.827,0.001,6.008-3.473c2.473-3.652,26.031-37.46,26.031-37.46
			v-0.51c0,0-2.964-1.198-3.534-10.189C44.381,5.17,41.013,6.705,41.013,6.705z"/>
	</g>
	<g>
		
			<radialGradient id="SVGID_00000159439842291375590150000002945683599162146963_" cx="32.1648" cy="31.9016" r="24.0186" gradientUnits="userSpaceOnUse">
			<stop  offset="0.5744" style="stop-color:#C7281D;stop-opacity:0"/>
			<stop  offset="0.6771" style="stop-color:#CA2A23;stop-opacity:0.2994"/>
			<stop  offset="0.7977" style="stop-color:#CE2D2D;stop-opacity:0.6512"/>
			<stop  offset="0.8168" style="stop-color:#C22A2B;stop-opacity:0.6794"/>
			<stop  offset="0.8664" style="stop-color:#A72327;stop-opacity:0.7526"/>
			<stop  offset="0.9144" style="stop-color:#932025;stop-opacity:0.8236"/>
			<stop  offset="0.9599" style="stop-color:#871F23;stop-opacity:0.8907"/>
			<stop  offset="1" style="stop-color:#831E23;stop-opacity:0.95"/>
		</radialGradient>
		<path fill="url(#SVGID_00000159439842291375590150000002945683599162146963_)" d="M11.935,5.787c0.629,0,7.598-0.059,9.148,0.079
			c1.552,0.137,3.789,1.472,4.458,2.218C26.207,8.83,53.871,48.31,53.871,48.31s-5.146,4.967-5.619,9.679
			c-2.217,0.628-6.957-6.556-6.957-6.556L10.481,7.811C10.242,6.494,11.935,5.787,11.935,5.787z"/>
		
			<radialGradient id="SVGID_00000078037139181930002410000011308249453242206620_" cx="30.6474" cy="31.8031" r="23.6362" gradientUnits="userSpaceOnUse">
			<stop  offset="0.5744" style="stop-color:#1D2088;stop-opacity:0"/>
			<stop  offset="0.6277" style="stop-color:#1E2A8C;stop-opacity:0.1554"/>
			<stop  offset="0.7299" style="stop-color:#214399;stop-opacity:0.4535"/>
			<stop  offset="0.7977" style="stop-color:#2355A5;stop-opacity:0.6512"/>
			<stop  offset="0.8489" style="stop-color:#244DA0;stop-opacity:0.7269"/>
			<stop  offset="0.9291" style="stop-color:#25459A;stop-opacity:0.8453"/>
			<stop  offset="1" style="stop-color:#264299;stop-opacity:0.95"/>
		</radialGradient>
		<path fill="url(#SVGID_00000078037139181930002410000011308249453242206620_)" d="M44.013,6.607L9.688,55.507
			c-0.177,2.003,1.355,2.298,1.355,2.298s8.54,0.059,8.54,0s2.827,0.001,6.008-3.473c2.473-3.652,26.031-37.46,26.031-37.46v-0.51
			c0,0-2.964-1.198-3.534-10.189C47.381,5.072,44.013,6.607,44.013,6.607z"/>
	</g>
</g>
<g id="图层_3" display="none">
	<g display="inline">
		<path fill-rule="evenodd" clip-rule="evenodd" fill="#0F3157" d="M55.561,35.626c0.014,0.001,0.028,0.004,0.043,0.004
			c0.169-0.023,0.183-0.233,0.334-0.28c0.019-0.014,0.039-0.03,0.057-0.045c0.167-0.026,0.171-0.211,0.286-0.288
			c0.032-0.028,0.076-0.04,0.108-0.069c0.013-0.008,0.026-0.011,0.043-0.014c0.302-0.188,0.486-0.491,0.715-0.747
			c0.002-0.011,0.004-0.024,0.006-0.035c0-0.023,0-0.046-0.004-0.068c-0.029-0.053-0.08-0.054-0.131-0.056
			c-1.065-0.011-2.127,0.02-3.188-0.015c-0.183-0.053-0.13-0.179-0.089-0.305c-0.079,0.169-0.2,0.198-0.322,0.072
			c-0.122-0.126-0.259-0.163-0.423-0.15c-0.033-0.025,0.01,0.009-0.023-0.015c-0.023-0.018-0.044-0.037-0.068-0.052
			c0.015,0.019,0.041,0.025,0.056,0.044c0.11,0.083,0.228,0.155,0.224,0.317c-0.015,0.025-0.037,0.044-0.064,0.056
			c-0.274-0.009-0.475,0.158-0.676,0.304c-0.109,0.079-0.186,0.142-0.286,0.014c-0.086-0.11-0.085-0.216,0.042-0.294
			c0.196-0.119,0.078-0.207-0.034-0.271c-0.12-0.071-0.275-0.109-0.079-0.266c0.005-0.005,0.02-0.006,0.02-0.008
			c0.033-0.396,0.042-0.404,0.475-0.362c0.024-0.009,0.047-0.01,0.07-0.005c0.11,0.012,0.184-0.086,0.287-0.097
			c0.122-0.045,0.25-0.037,0.376-0.036c1.127,0.009,2.252-0.008,3.377,0c0.326,0.002,0.645,0.09,0.973,0.067
			c0.28,0.081,0.435-0.049,0.531-0.301c0.05-0.127,0.093-0.257,0.122-0.392c0.012-0.033,0.027-0.064,0.044-0.093
			c0.224-0.738,0.22-0.743-0.528-0.743c-1.851,0-3.702,0-5.553-0.001c-0.147,0-0.294,0.013-0.439-0.022
			c-0.076-0.027-0.121-0.078-0.125-0.16c0.001-0.035,0.011-0.066,0.03-0.095c0.045-0.031,0.091-0.02,0.137-0.003
			c0.137,0.064,0.289,0.021,0.455,0.066c-0.112-0.115-0.207-0.228-0.101-0.363c0.083-0.106,0.205-0.13,0.34-0.083
			c0.047,0.016,0.048,0.105,0.107,0.067c0.028-0.018,0.04-0.074,0.032-0.116c-0.017-0.085-0.088-0.08-0.149-0.073
			c-0.165,0.019-0.338,0.058-0.492-0.014c-0.097-0.045-0.373-0.097-0.062-0.26c1.763-0.028,3.523-0.005,5.284-0.012
			c0.296-0.002,0.591-0.001,0.885-0.001c0.103-0.013,0.226,0.042,0.302-0.081c0.004-0.026,0.009-0.052,0.014-0.078
			c-0.027-0.305-0.097-0.597-0.261-0.86c-0.124-0.084-0.168-0.218-0.218-0.348c-0.015-0.04-0.028-0.081-0.039-0.123
			c-0.007-0.029-0.01-0.058-0.01-0.087c0.002-0.03,0.008-0.059,0.018-0.087c0.007-0.364,0.36-0.289,0.553-0.405
			c0.075-0.046,0.141,0.155,0.215,0.252c-0.195-0.206-0.131-0.431-0.065-0.655c0.03-0.106,0.074-0.21,0.21-0.186
			c0.121,0.022,0.182,0.088,0.126,0.226c-0.029,0.07,0.021,0.138,0.06,0.193c-0.093-0.182-0.073-0.284,0.165-0.199
			c0.119,0.042,0.226,0.016,0.336-0.021c0.13-0.017,0.172,0.094,0.241,0.167c0.017,0.024,0.03,0.051,0.041,0.078
			c0.062,0.198,0.178,0.371,0.255,0.562c0.096,0.271,0.18,0.545,0.26,0.822c0.057,0.287,0.109,0.575,0.117,0.869
			c-0.062,0.347-0.051,0.695-0.008,1.042c-0.009,0.522-0.16,1.018-0.279,1.519c-0.009,0.096-0.047,0.184-0.074,0.275
			c-0.144,0.198-0.172,0.462-0.369,0.629c-0.026,0.047-0.053,0.091-0.079,0.136c-0.081,0.067-0.046,0.188-0.12,0.258
			c-0.061,0.106-0.133,0.201-0.252,0.247c-0.066,0.106-0.131,0.212-0.197,0.318c0.009,0.05-0.019,0.077-0.057,0.099
			c-0.128,0.033-0.231,0.093-0.263,0.233c0,0.016-0.005,0.031-0.013,0.043c-0.004,0.047-0.027,0.086-0.063,0.115
			c-0.26,0.212-0.494,0.451-0.709,0.71c-0.032,0.036-0.071,0.054-0.118,0.052c-0.055,0.049-0.11,0.098-0.164,0.147
			c-0.168,0.03-0.172,0.244-0.328,0.285c-0.009,0.021-0.025,0.033-0.048,0.033c-0.149,0.007-0.146,0.191-0.268,0.229
			c-0.046,0.046-0.091,0.093-0.136,0.14c-0.096,0.094,0.018,0.164,0.032,0.245c0,0.04-0.009,0.084-0.019,0.123
			c-0.06,0.089,0.096,0.248-0.088,0.293c-0.135,0.033-0.403-0.182-0.458-0.363c0.079,0.333-0.118,0.317-0.35,0.385
			c-0.344,0.102-0.583-0.074-0.864-0.159c-0.021-0.007-0.028-0.03-0.028-0.051c0-0.021,0.004-0.043,0.017-0.066
			c-0.038,0.039-0.033,0.083-0.009,0.116c0.065,0.086,0.143,0.18,0.067,0.281c-0.07,0.096-0.173,0.027-0.262,0.003
			c-0.14-0.037-0.205,0.019-0.181,0.16c0.02,0.114-0.018,0.2-0.085,0.291c0.147-0.273,0.331-0.479,0.674-0.406
			c0.029,0.009,0.051,0.026,0.067,0.053c-0.016,0.134,0.094,0.156,0.177,0.21c0.303,0.195,0.316,0.288,0.088,0.61
			c-0.121-0.005-0.155-0.145-0.266-0.164c-0.025-0.012-0.048-0.024-0.069-0.04c-0.056-0.062-0.121-0.098-0.204-0.06
			c-0.101,0.042-0.186,0.105-0.274,0.167c-0.055,0.042-0.11,0.083-0.174,0.109c-0.026,0.01-0.051,0.016-0.078,0.021
			c-0.136,0.016-0.19,0.136-0.275,0.214c-0.021,0.018-0.045,0.034-0.067,0.049c-0.104,0.04-0.181,0.118-0.268,0.183
			c-0.144,0.086-0.255,0.209-0.346,0.35c-0.098,0.123-0.207,0.233-0.329,0.331c-0.063,0.056-0.164,0.083-0.15,0.198
			c0.012,0.023,0.021,0.046,0.033,0.067c0.022,0.019,0.045,0.032,0.071,0.04c0.385,0.033,0.771-0.019,1.155,0.03
			c0.131,0.056,0.218,0.145,0.149,0.292c-0.059,0.117-0.183,0.094-0.277,0.051c-0.149-0.068-0.26,0-0.401,0.075
			c0.107,0.082,0.23-0.028,0.325,0.061c0.062,0.06,0.217-0.038,0.243,0.125c0.022,0.145-0.028,0.245-0.166,0.298
			c-0.34,0.051-0.685-0.012-1.022,0.04c-0.033,0.008-0.065,0.009-0.098,0.008c-0.221-0.043-0.444-0.037-0.667-0.018
			c-0.036,0.018-0.065,0.04-0.087,0.074c-0.01,0.023-0.023,0.047-0.036,0.067c-0.035,0.077-0.081,0.142-0.151,0.189
			c-0.147,0.107-0.176,0.28-0.238,0.432c-0.051,0.123-0.064,0.275-0.231,0.308c-0.158-0.065-0.225-0.256-0.471-0.242
			c-0.152,0.012-0.061-0.191,0.047-0.267c0.072-0.052,0.152-0.074,0.009-0.135c-0.04-0.017-0.067-0.093-0.047-0.101
			c0.187-0.087,0.069-0.311,0.191-0.429c-0.126,0.128-0.226,0.313-0.457,0.172c-0.079-0.046-0.177-0.021-0.255,0.04
			c0.069,0.079-0.137,0.262,0.112,0.277c0.08,0.005,0.062,0.093,0.047,0.155c-0.026,0.107-0.092,0.159-0.2,0.171
			c-0.252,0.032-0.54-0.22-0.564-0.495c-0.005-0.057-0.011-0.116,0.007-0.174c0.05-0.156,0.168-0.288,0.157-0.463
			c0.014-0.07,0.043-0.131,0.099-0.177c0.06-0.088,0.121-0.178,0.181-0.264c0.116-0.05,0.124-0.172,0.178-0.265
			c0.076-0.094,0.165-0.182,0.174-0.317c-0.065-0.2,0.187-0.176,0.219-0.307c0.096-0.037,0.146-0.111,0.174-0.206
			c0.05-0.146,0.229-0.215,0.233-0.388c0.03-0.069,0.084-0.116,0.146-0.154c0.238-0.16,0.438-0.36,0.599-0.597
			c0.04-0.069,0.098-0.107,0.179-0.107c0.012-0.009,0.024-0.014,0.04-0.016c0.172-0.038,0.189-0.223,0.304-0.319
			c0.019-0.02,0.042-0.034,0.069-0.041c0.142-0.003,0.13-0.234,0.297-0.199c0.105-0.036,0.186-0.093,0.202-0.213
			c0.021-0.036,0.048-0.062,0.096-0.051c0.171-0.118,0.342-0.234,0.513-0.351c0.103,0.018,0.118-0.089,0.179-0.131
			c0.11-0.033,0.1-0.234,0.265-0.191c0.105,0.014,0.144-0.063,0.187-0.135c0.043-0.043,0.087-0.086,0.128-0.127
			c0.043-0.075,0.082-0.153,0.19-0.139c-0.01,0.01-0.01,0.021-0.001,0.031c0.102,0.004,0.148-0.07,0.195-0.144
			c0.041-0.043,0.082-0.086,0.123-0.129C55.417,35.697,55.462,35.626,55.561,35.626z"/>
		<path fill-rule="evenodd" clip-rule="evenodd" fill="#112F54" d="M51.896,30.524c0.187,0.147,0.402,0.145,0.616,0.096
			c0.153-0.036,0.292-0.012,0.347,0.124c0.056,0.134-0.16,0.192-0.156,0.333c-0.041-0.004-0.081-0.007-0.121-0.012
			c0.041-0.173-0.024-0.23-0.184-0.156c-0.048,0.023-0.145-0.011-0.141,0.086c0.005,0.158,0.149,0.177,0.251,0.238
			c0.015,0.009,0.021,0.035,0.048,0.085c-0.254,0.02-0.489,0.079-0.724-0.039c0.029-0.07,0.005-0.089-0.063-0.064
			c-0.165,0.087-0.26-0.036-0.341-0.134c-0.09-0.108-0.091-0.227,0.101-0.217c0.08,0.004,0.14-0.038,0.21-0.061
			c-0.113-0.002-0.171-0.201-0.349-0.031c-0.134,0.127-0.152-0.085-0.182-0.18c-0.004-0.004-0.009-0.01-0.014-0.017
			c0.009,0.016,0.016,0.033,0.019,0.053c-0.096,0.139-0.242,0.158-0.39,0.168c-0.093,0.006-0.154-0.056-0.191-0.139
			c-0.026-0.06-0.038-0.16,0.018-0.169c0.322-0.05,0.292-0.403,0.451-0.531c-0.096,0.294-0.364,0.481-0.644,0.65
			c0.031,0.132,0.234,0.157,0.169,0.318c-0.05,0.127-0.181,0.121-0.286,0.163c-0.423,0.167-0.424,0.169-0.428-0.305
			c0-0.126-0.016-0.251-0.027-0.376c0.026-0.494,0.128-0.972,0.292-1.437c0.076-0.238,0.236-0.434,0.342-0.659
			c0.048-0.103,0.1-0.205,0.081-0.324c0.014-0.075,0.049-0.138,0.101-0.194c0.155-0.104,0.198-0.291,0.31-0.426
			c0.095,0.027,0.086-0.061,0.116-0.105c0.062-0.118,0.232-0.154,0.24-0.313c0.062-0.127,0.252-0.15,0.263-0.32
			c0.286-0.303,0.537-0.642,0.889-0.878c0.16-0.037,0.174-0.206,0.274-0.299c0.018-0.021,0.038-0.04,0.062-0.057
			c0.037-0.008,0.07-0.017,0.107-0.026c0.143-0.003,0.134-0.153,0.211-0.222c0.018-0.021,0.041-0.035,0.066-0.045
			c0.121,0.003,0.209-0.034,0.209-0.176c0.023-0.139-0.121-0.188-0.16-0.294c-0.03-0.023-0.061-0.047-0.091-0.07
			c-0.027-0.006-0.051-0.02-0.07-0.041c-0.101-0.099-0.105-0.291-0.292-0.309c-0.041-0.023-0.08-0.046-0.12-0.068
			c-0.086,0.004-0.126-0.057-0.165-0.118c-0.21-0.347-0.53-0.59-0.825-0.857c-0.018-0.021-0.034-0.044-0.044-0.069
			c-0.003-0.166-0.115-0.229-0.254-0.267c-0.037-0.021-0.062-0.049-0.053-0.096c-0.028-0.122-0.206-0.151-0.184-0.303
			c-0.077-0.191-0.201-0.354-0.322-0.519c-0.023-0.08-0.095-0.146-0.078-0.24c0.155-0.238-0.101-0.225-0.192-0.313
			c-0.057-0.057-0.089-0.121-0.052-0.202c0.206-0.033,0.455-0.212,0.54,0.163c0.008,0.034,0.073,0.032,0.114,0.038
			c0.097,0.016,0.203,0.03,0.201,0.155c-0.005,0.153-0.117,0.183-0.246,0.172c0.262,0.106,0.439,0.036,0.482-0.231
			c0.021-0.132,0.204-0.324-0.08-0.426c-0.056-0.019-0.009-0.137,0.051-0.188c0.097-0.08,0.201-0.173,0.335-0.137
			c0.095,0.024,0.146,0.122,0.148,0.222c0.001,0.093-0.05,0.18-0.054,0.279c0.237-0.021,0.241-0.335,0.498-0.369
			c-0.124-0.007-0.239,0.015-0.264-0.112c-0.01-0.057,0.058-0.076,0.108-0.096c0.637-0.027,1.275-0.026,1.913-0.001
			c0.224,0.078,0.458,0.043,0.687,0.047c0.641,0.009,1.28-0.012,1.92,0.01c0.084,0.011,0.155,0.061,0.231,0.092
			c0.124,0.049,0.292,0.063,0.292,0.24c-0.002,0.147-0.154,0.189-0.257,0.25c-0.279,0.165-0.385,0.13-0.627-0.151
			c-0.027-0.033-0.114-0.035-0.177-0.065c-0.029-0.017-0.022,0.055-0.01,0.014c0.002-0.012,0.012-0.013,0.029,0
			c0.121,0.086,0.312,0.172,0.001,0.258c-0.149,0.041,0.051,0.231-0.114,0.264c-0.303,0.078-0.614-0.008-0.917,0.056
			c-0.036,0.006-0.069,0.007-0.104,0.004c-0.248-0.045-0.498-0.042-0.749-0.003c-0.033,0.005-0.066,0.004-0.099,0
			c-0.405-0.043-0.811-0.035-1.214-0.005c-0.037,0.021-0.061,0.055-0.073,0.096c0.156,0.358,0.475,0.565,0.752,0.809
			c0.048,0.029,0.094,0.062,0.137,0.101c0.097,0.111,0.189,0.23,0.335,0.282c0.024,0.014,0.047,0.03,0.067,0.049
			c0.051,0.065,0.115,0.111,0.202,0.118c0.159,0.028,0.243,0.147,0.324,0.269c0.072,0.099,0.132,0.223,0.292,0.148
			c0.069-0.043,0.122-0.102,0.184-0.153c0.135-0.125,0.298-0.203,0.458-0.289c0.15-0.044,0.256-0.156,0.373-0.251
			c0.138-0.074,0.23-0.201,0.338-0.307c0.194-0.066,0.286-0.303,0.517-0.309c0.195,0.133,0.363,0.31,0.615,0.344
			c0.084,0.011,0.177,0.079,0.158,0.166c-0.07,0.323,0.178,0.318,0.366,0.379c0.078,0.025,0.167,0.016,0.238,0.065
			c0.074,0.139-0.043,0.207-0.113,0.286c-0.13,0.147-0.287,0.268-0.398,0.432c-0.03,0.036-0.068,0.058-0.114,0.063
			c-0.01,0.007-0.023,0.012-0.036,0.014c-0.214,0.023-0.219,0.288-0.399,0.348c-0.009,0.02-0.025,0.03-0.048,0.029
			c-0.147,0.004-0.145,0.19-0.27,0.223c-0.008,0.021-0.024,0.029-0.046,0.028c-0.097,0.02-0.153,0.076-0.153,0.179
			c-0.324,0.243-0.68,0.448-0.967,0.74c-0.028,0.029-0.095,0.021-0.144,0.031c-0.102,0.015-0.146,0.079-0.159,0.175
			c-0.048,0.063-0.156,0.039-0.185,0.13c-0.041,0.077-0.085,0.15-0.189,0.144c0.006-0.012,0.006-0.022-0.002-0.032
			c-0.131,0-0.174,0.112-0.244,0.19c-0.037,0.029-0.072,0.059-0.109,0.089c-0.125,0.017-0.173,0.139-0.267,0.199
			c-0.168,0.023-0.181,0.222-0.318,0.28c-0.009,0.019-0.024,0.028-0.047,0.027c-0.143,0.019-0.155,0.159-0.228,0.244
			c-0.029,0.036-0.067,0.056-0.116,0.059c-0.011,0.008-0.025,0.013-0.039,0.014c-0.214,0.088-0.294,0.3-0.424,0.463
			c-0.075,0.127-0.229,0.199-0.251,0.363c-0.019,0.05-0.047,0.095-0.077,0.139c-0.019,0.036-0.04,0.069-0.066,0.1
			c-0.02,0.019-0.042,0.035-0.065,0.048c-0.012,0.242-0.036,0.48-0.21,0.67c-0.079,0.062-0.179,0.05-0.265,0.084
			c-0.018,0.016-0.035,0.035-0.048,0.054c-0.013,0.021-0.028,0.04-0.043,0.06c-0.039,0.048-0.08,0.093-0.119,0.141
			c-0.04,0.051-0.086,0.097-0.14,0.135c-0.108,0.089-0.114,0.227-0.159,0.345c-0.085,0.23-0.141,0.465-0.144,0.71
			c0.01,0.026,0.019,0.052,0.025,0.079C51.897,30.468,51.897,30.496,51.896,30.524z"/>
		<path fill-rule="evenodd" clip-rule="evenodd" fill="#0F3158" d="M55.692,38.68c0.167-0.246,0.133-0.481-0.149-0.558
			c-0.228-0.061-0.141-0.149-0.104-0.264c-0.03,0.01-0.062,0.031-0.091,0.026c-0.314-0.038-0.408,0.244-0.585,0.402
			c-0.063,0.056-0.112,0.158-0.2,0.071c-0.083-0.084,0.029-0.126,0.08-0.159c0.077-0.052,0.126-0.187,0.109-0.2
			c-0.159-0.146-0.055-0.212,0.057-0.316c0.163-0.15,0.225,0.002,0.323,0.071c0.018,0.014,0.06-0.004,0.111-0.009
			c-0.063-0.171-0.172-0.329-0.087-0.559c0.074,0.251,0.303,0.274,0.462,0.394c0.229,0.173,0.474-0.204,0.702-0.004
			c0.067-0.055,0.02-0.094,0.025-0.131c0.014-0.114-0.068-0.298,0.068-0.321c0.111-0.02,0.063,0.166,0.093,0.246
			c0.044,0.117,0.274,0.074,0.373,0.223c0.017-0.109-0.072-0.215,0.015-0.305c0.15-0.034,0.211,0.136,0.344,0.147
			c0.099,0.054,0.109,0.207,0.247,0.221c0.038,0.031,0.076,0.062,0.114,0.093c0.266,0.167,0.392,0.47,0.636,0.658
			c0.168,0.19,0.366,0.345,0.57,0.492c0.023,0.017,0.038,0.038,0.046,0.066c0.023,0.032,0.047,0.062,0.069,0.094
			c0.074,0.042,0.147,0.084,0.143,0.185c0.185,0.277,0.369,0.553,0.555,0.825c0.117,0.1,0.177,0.231,0.2,0.379
			c0.057,0.112,0.112,0.223,0.168,0.335c0.022,0.018,0.035,0.042,0.036,0.072c-0.001,0.101,0.045,0.191,0.071,0.286
			c0.065,0.142,0.121,0.286,0.168,0.433c0.101,0.485,0.22,0.968,0.247,1.465c-0.07,0.3-0.042,0.604-0.024,0.905
			c0.014,0.097-0.013,0.188-0.047,0.279c-0.021,0.097-0.181,0.099-0.157,0.228c-0.024,0.021-0.048,0.039-0.07,0.06
			c-0.318,0.201-0.65,0.285-1.015,0.14c-0.141-0.038-0.219-0.17-0.344-0.236c-0.026-0.012-0.037-0.034-0.039-0.06l0.006,0.008
			c-0.074-0.029-0.091-0.098-0.112-0.163c0.017-0.096-0.04-0.172-0.069-0.259c-0.001-0.048-0.014-0.092-0.05-0.128
			c-0.089-0.051-0.186-0.041-0.279-0.041c-2.157,0-4.314-0.005-6.471,0.004c-0.11,0.009-0.16,0.074-0.169,0.182
			c-0.011,0.157-0.084,0.293-0.162,0.426c-0.295,0.34-0.658,0.408-1.073,0.276c-0.677-0.357-0.63-0.985-0.576-1.595
			c0.027-0.31,0.039-0.626,0.12-0.932c0.074-0.28,0.11-0.58,0.336-0.801c-0.027,0.298,0.231,0.336,0.411,0.42
			c0.146,0.07,0.215-0.044,0.239-0.199c-0.089-0.027-0.174,0.077-0.276,0.009c0.151-0.136,0.104-0.3,0.029-0.506
			c0.185,0.112,0.38-0.079,0.547,0.117c0.045,0.051,0.131-0.075,0.185-0.135c0.11-0.13,0.224-0.196,0.362,0.031
			c-0.385-0.105-0.056,0.436-0.414,0.341c0.072,0.138,0.186,0.121,0.276,0.165c-0.056,0.166-0.322,0.117-0.345,0.37
			c0.346-0.276,0.398,0.022,0.508,0.213c0.061,0.048,0.093,0.114,0.114,0.188c0.044,0.094-0.034,0.243,0.131,0.284
			c2.08,0.012,4.16,0.003,6.235,0.003c0.135-0.001,0.185-0.061,0.156-0.2c-0.04-0.193-0.062-0.392-0.172-0.566
			c-0.099-0.083-0.13-0.204-0.174-0.318c-0.007-0.024-0.01-0.052-0.01-0.079c0.021-0.166-0.108-0.148-0.209-0.165
			c-1.684-0.005-3.368,0-5.051-0.005c-0.154-0.001-0.32,0.039-0.451-0.084c0-0.022-0.003-0.044-0.005-0.066
			c0.364-0.156,0.747-0.053,1.118-0.059c1.333-0.023,2.666-0.009,3.994-0.005c-0.466,0.004-0.925-0.028-1.387,0.018
			c-0.037,0.003-0.07,0-0.104-0.013c-0.422-0.022-0.843-0.001-1.265-0.01c-0.112-0.003-0.234,0.031-0.331-0.061
			c0.06-0.087,0.048-0.178,0.015-0.278c-0.053-0.11-0.238,0.389-0.245-0.042c0-0.035-0.103,0.024-0.148,0.063
			c-0.159,0.135-0.065-0.209-0.206-0.107c-0.044-0.078,0.033-0.085,0.068-0.101c0.159-0.083,0.296-0.309,0.51-0.078
			c0.021,0.021,0.124,0.053,0.17-0.013c0.053-0.074-0.014-0.136-0.037-0.202c0.107-0.123,0.251-0.09,0.383-0.09
			c0.707-0.008,1.413,0.004,2.116-0.008c0.026-0.009,0.049-0.023,0.067-0.044c0.009-0.025,0.018-0.052,0.023-0.077
			c-0.186-0.319-0.432-0.573-0.766-0.736c-0.04-0.019-0.072-0.049-0.099-0.084c-0.054-0.1-0.111-0.194-0.239-0.213
			c-0.141-0.05-0.261-0.131-0.355-0.249C55.672,38.734,55.675,38.707,55.692,38.68z"/>
		<path fill-rule="evenodd" clip-rule="evenodd" fill="#112E53" d="M56.325,21.533c-0.024-0.035-0.048-0.069-0.072-0.102
			c-0.046-0.063-0.151-0.114-0.073-0.208c0.074-0.088,0.125,0.032,0.189,0.041c0.037,0.004,0.075-0.003,0.17-0.008
			c-0.138-0.094-0.23-0.158-0.327-0.225c0.109-0.073,0.185-0.005,0.27,0.021c0.077,0.023,0.144-0.095,0.228-0.035
			c0.088,0.12-0.191,0.134-0.067,0.252c0.091,0.086,0.2,0.002,0.303,0.009c0.165,0.012,0.245-0.143,0.376-0.206
			c0.129-0.061,0.017-0.12-0.053-0.165c-0.079-0.052-0.224,0.023-0.246-0.133c0.198-0.127,0.416-0.035,0.617-0.064
			c-0.977,0-1.948,0.025-2.916-0.008c-0.811-0.027-1.622,0.002-2.432-0.04c-0.037-0.032-0.037-0.066-0.006-0.102
			c0.169-0.121,0.363-0.09,0.55-0.091c1.724-0.003,3.448,0.002,5.172-0.005c0.198,0.034,0.242-0.124,0.307-0.253
			c0.063-0.122,0.104-0.252,0.136-0.385c0.033-0.152,0.079-0.301,0.11-0.453c0.026-0.12,0.05-0.253-0.103-0.322
			c-0.063-0.017-0.126-0.019-0.19-0.019c-2.033,0-4.068-0.002-6.101,0.001c-0.043,0-0.084,0.005-0.124,0.012
			c-0.112,0.033-0.203,0.101-0.172,0.222c0.047,0.181,0.024,0.381,0.136,0.546c0.143,0.106,0.159,0.267,0.187,0.424
			c-0.02,0.145,0.033,0.276,0.082,0.407c0.019,0.015,0.024,0.029,0.019,0.044c-0.006,0.015-0.012,0.023-0.019,0.023
			c0.151,0.14,0.368,0.001,0.587,0.139c-0.268,0.057-0.516,0.053-0.57,0.359c-0.01,0.053-0.25,0.102-0.372,0.084
			c-0.085-0.012,0.128-0.14,0-0.219c0.07-0.085,0.166-0.179,0.031-0.273c-0.119-0.085-0.186,0.072-0.286,0.095
			c-0.042,0.009-0.078,0.033-0.113,0.089c0.174-0.021,0.203,0.013,0.219,0.169c0.031,0.332-0.115,0.566-0.346,0.751
			c-0.115,0.091-0.191-0.197-0.349-0.101c-0.017-0.058-0.059-0.124-0.043-0.172c0.04-0.134,0.098,0.024,0.162,0.003
			c0.071-0.023,0.155-0.016,0.155-0.114c0-0.101-0.074-0.073-0.137-0.063c-0.161,0.025-0.235-0.017-0.209-0.207
			c0.009-0.074-0.135-0.126-0.193-0.069c-0.111,0.109-0.168-0.001-0.247-0.027c-0.11,0.017-0.146-0.067-0.187-0.142
			c-0.245-0.532-0.35-1.1-0.458-1.669c0.001-0.337-0.086-0.666-0.082-1.005c0.003-0.291,0.025-0.565,0.183-0.816
			c0.166-0.314,0.502-0.482,0.864-0.427c0.094,0.014,0.184,0.049,0.282,0.042c0.069,0.002,0.127,0.025,0.155,0.096
			c0.106,0.129,0.213,0.257,0.317,0.386c0.02,0.02,0.032,0.044,0.032,0.073c0.01,0.103-0.044,0.22,0.069,0.3
			c0.03,0.014,0.059,0.023,0.092,0.028c2.161,0.011,4.32-0.002,6.48,0.01c0.312,0.002,0.429-0.16,0.493-0.416
			c0.014-0.044,0.028-0.088,0.042-0.133c-0.016-0.049,0.012-0.075,0.048-0.097c0.093-0.037,0.158-0.117,0.246-0.161
			c0.284-0.183,0.589-0.13,0.894-0.084c0.068,0.003,0.121,0.028,0.145,0.095c0.065,0.064,0.131,0.127,0.194,0.191
			c0.073,0.034,0.094,0.096,0.097,0.169c0.126,1.01,0.11,2.008-0.246,2.978c-0.05,0.137-0.116,0.27-0.134,0.418
			c-0.087,0.29-0.223,0.556-0.415,0.79c-0.212,0.307-0.423,0.615-0.635,0.922c-0.006,0.027-0.019,0.05-0.04,0.068
			c-0.081,0.086-0.236,0.091-0.26,0.238c-0.024,0.036-0.047,0.072-0.072,0.109c-0.007,0.047-0.033,0.079-0.076,0.097
			c-0.044,0.01-0.085,0.004-0.115-0.034c-0.287,0.011-0.575,0.031-0.724-0.296c-0.008-0.017-0.033-0.025-0.047-0.039
			c-0.092-0.089,0.253-0.11,0.037-0.21c-0.102-0.047-0.222-0.051-0.331-0.084c-0.162-0.05-0.244-0.186-0.326-0.32
			c-0.052-0.151,0.112-0.212,0.137-0.33c0.003-0.027,0.01-0.052,0.018-0.077c0.013-0.037,0.032-0.07,0.05-0.103
			c0.026-0.047,0.025-0.097,0.021-0.148c-0.149-0.251-0.245,0.034-0.368,0.036C56.732,21.611,56.514,21.69,56.325,21.533z"/>
		<path fill-rule="evenodd" clip-rule="evenodd" fill="#103056" d="M51.199,30.583c0.139-0.035,0.027,0.192,0.165,0.159
			c0.044-0.011,0.061-0.07,0.071-0.24c0.111,0.042,0.199,0.117,0.254,0.217c0.03,0.054,0.186,0.043,0.106,0.102
			c-0.061,0.044-0.094,0.272-0.256,0.115c-0.034-0.035-0.075-0.041-0.099,0.003c-0.009,0.019,0.002,0.07,0.02,0.083
			c0.1,0.069,0.205,0.13,0.309,0.194c0,0.064,0,0.127,0,0.191c0.15,0.172,0.07,0.401,0.145,0.596
			c0.064,0.163,0.077,0.343,0.156,0.504c0.078,0.225,0.135,0.47,0.446,0.49c0.05,0.002,0.091,0.049,0.076,0.115
			c-0.012,0.036-0.249,0.097-0.345,0.08c-0.065-0.011-0.144-0.087-0.162,0.048c-0.007,0.051-0.033,0.117-0.01,0.15
			c0.072,0.11,0.128-0.083,0.209-0.024c0.002,0.021,0.012,0.043,0.006,0.058c-0.042,0.114-0.253,0.013-0.234,0.153
			c0.021,0.141,0.179,0.043,0.268,0.081c0.048,0.02,0.115,0.093,0.092,0.108c-0.238,0.154,0.083,0.161,0.061,0.258
			c-0.064,0.084-0.153-0.026-0.227,0.022c-0.045,0.03-0.104,0.06-0.087,0.115c0.018,0.054,0.062,0.119,0.112,0.141
			c0.085,0.037,0.044-0.081,0.072-0.089c0.282-0.064,0.448-0.462,0.812-0.277c0.019,0.013,0.028,0.031,0.028,0.054
			c0.003,0.032,0.009,0.063,0.017,0.095c0.005,0.022,0.01,0.044,0.013,0.066c0.007,0.024,0.014,0.048,0.023,0.071
			c0.19,0.197,0.329,0.442,0.572,0.587c0.038,0.033,0.077,0.065,0.115,0.094c0.122,0.023,0.108,0.216,0.254,0.208
			c0.022,0.014,0.042,0.028,0.061,0.042c0.119,0.043,0.131,0.201,0.254,0.238c0.017,0.013,0.032,0.026,0.049,0.04
			c0.061,0.028,0.102,0.07,0.107,0.141c-0.086,0.172-0.277,0.213-0.41,0.326c-0.306,0.119-0.492,0.43-0.823,0.507
			c-0.159,0.118-0.328,0.194-0.53,0.122c-0.048-0.011-0.089-0.04-0.122-0.074c-0.193-0.194-0.286-0.483-0.566-0.595
			c-0.081-0.05-0.149-0.111-0.192-0.197c-0.098-0.238-0.322-0.34-0.517-0.475c-0.037-0.025-0.064-0.056-0.052-0.106
			c-0.217-0.233-0.434-0.466-0.553-0.769c-0.023-0.135-0.075-0.25-0.229-0.283c-0.071-0.055-0.106-0.128-0.108-0.218l0.026,0.003
			c-0.034-0.267-0.239-0.464-0.299-0.721c-0.308-0.732-0.489-1.487-0.434-2.288c0.008-0.122-0.024-0.256,0.098-0.347
			c0.13,0.223-0.001,0.477,0.093,0.736c0.128-0.112,0.224-0.285,0.432-0.208c0.049,0.018,0.095-0.038,0.114-0.089
			c0.018-0.056-0.041-0.063-0.067-0.092c-0.068-0.077-0.193-0.088-0.24-0.208c0.305-0.146,0.634-0.26,0.763-0.623
			c0.047-0.13,0.179-0.125,0.391-0.124c-0.428,0.149-0.453,0.477-0.549,0.768c-0.085,0.005-0.042-0.187-0.167-0.123
			c-0.058,0.029-0.045,0.085-0.025,0.137c0.039,0.096,0.102,0.125,0.2,0.086C50.992,30.674,51.113,30.668,51.199,30.583z"/>
		<path fill-rule="evenodd" clip-rule="evenodd" fill="#103056" d="M53.032,28.122c0.002-0.051,0.003-0.094,0.003-0.137
			c0.176-0.082,0.363-0.09,0.552-0.091c1.174-0.003,2.347,0.014,3.519-0.008c0.087-0.027,0.133-0.086,0.061-0.16
			c-0.181-0.184-0.336-0.396-0.546-0.551c-0.037-0.029-0.075-0.057-0.112-0.086c-0.141-0.059-0.148-0.274-0.333-0.28
			c-0.107-0.035-0.119-0.195-0.251-0.2l-0.022,0.013l-0.022-0.011c-0.083-0.111,0.003-0.183,0.06-0.262
			c0.275-0.193,0.549-0.387,0.823-0.58c0.102-0.026,0.197-0.061,0.255-0.159c0.064-0.047,0.13-0.093,0.194-0.14
			c0.242-0.081,0.38,0.081,0.525,0.226c0.071,0.015,0.121,0.062,0.165,0.118c0.331,0.182,0.529,0.513,0.821,0.737
			c0.029,0.032,0.041,0.075,0.07,0.107c0.006,0.012,0.01,0.025,0.011,0.039c0.025,0.16,0.213,0.175,0.274,0.303
			c0.039,0.086,0.097,0.155,0.187,0.191c0.035,0.023,0.06,0.05,0.047,0.096c0.101,0.149,0.202,0.298,0.303,0.448
			c0.055,0.022,0.085,0.062,0.089,0.122c-0.004,0.061-0.046,0.095-0.087,0.128c-0.154,0.271-0.335,0.111-0.501,0.014
			c-0.073,0.129,0.188,0.217-0.015,0.353c-0.005-0.148-0.196-0.221-0.122-0.383c0.051-0.116-0.027-0.131-0.092-0.146
			c-0.082-0.018-0.135,0.074-0.116,0.11c0.091,0.185-0.302,0.427,0.071,0.583c0.04,0.017-0.032,0.156-0.086,0.217
			c-0.088,0.098-0.147,0.047-0.168-0.058c-0.004-0.02,0.081-0.063,0.075-0.076c-0.024-0.067-0.14-0.087-0.088-0.217
			c-0.111,0.097-0.149,0.325-0.342,0.135c-0.039-0.04-0.145-0.018-0.093,0.076c0.083,0.144-0.126,0.119-0.107,0.216
			c-0.102,0.098-0.229,0.091-0.355,0.091c-1.226-0.001-2.449,0.007-3.674-0.003c-0.134-0.06-0.365,0.031-0.368-0.239
			c0-0.024-0.033,0.005-0.042,0.013c-0.101,0.095-0.27-0.067-0.372,0.117c-0.038,0.071-0.237,0.01-0.36,0.045
			c-0.031,0.002-0.056-0.007-0.082-0.025c-0.056-0.093,0.011-0.147,0.053-0.22c0.046-0.08,0.229-0.21-0.037-0.265
			c-0.053-0.011-0.045-0.07,0.002-0.088C52.884,28.206,52.867,27.981,53.032,28.122c0.164-0.048,0.276,0.124,0.493,0.079
			C53.315,28.214,53.193,28.085,53.032,28.122z"/>
		<path fill-rule="evenodd" clip-rule="evenodd" fill="#FAF8F3" d="M58.676,43.865c0.007,0.047,0.014,0.095,0.022,0.141
			c0.053,0.049,0.078,0.107,0.045,0.18c0.024,0.058,0.046,0.12,0.072,0.179c-0.131-0.02-0.187-0.128-0.19-0.224
			c-0.005-0.281-0.179-0.275-0.383-0.275c-2.036,0.004-4.071,0.008-6.106,0c-0.223-0.001-0.395,0.004-0.397,0.296
			c-0.001,0.086-0.061,0.182-0.172,0.205c-0.005-0.017-0.014-0.031-0.019-0.046c0.104-0.19,0.013-0.45,0.209-0.608
			c0.264,0.007,0.528-0.014,0.792,0.013c0.442,0.041,0.884,0.014,1.327,0.018c1.56,0.009,3.119-0.009,4.678,0.01
			C58.615,43.768,58.671,43.79,58.676,43.865z"/>
		<path fill-rule="evenodd" clip-rule="evenodd" fill="#0B132E" d="M58.223,18.042c0.126,0,0.251-0.001,0.377-0.002
			c0.029-0.123,0.034-0.255,0.144-0.345c0.02-0.028,0.039-0.055,0.059-0.083c0.056,0.358-0.048,0.503-0.371,0.503
			c-2.163,0.001-4.327,0.001-6.492,0c-0.1,0-0.213,0.035-0.291-0.069c0.039-0.002,0.08-0.003,0.119-0.005
			C53.92,18.008,56.072,18.009,58.223,18.042z"/>
		<path fill-rule="evenodd" clip-rule="evenodd" fill="#15223E" d="M49.941,30.456c-0.051,0.868,0.033,1.719,0.342,2.539
			c0.022,0.057,0.02,0.122,0.03,0.185c0.019,0.015,0.026,0.029,0.018,0.044c-0.008,0.013-0.013,0.02-0.019,0.02
			c-0.17-0.228-0.179-0.522-0.313-0.765c-0.185-0.397-0.184-0.828-0.219-1.252c0-0.147,0-0.295,0-0.443
			c0.002-0.126-0.01-0.253,0.023-0.377c0.072-0.433,0.125-0.869,0.275-1.286c0.034-0.096,0.04-0.207,0.148-0.26
			c0.045,0.014,0.052,0.039,0.025,0.076C50.119,29.437,50.013,29.943,49.941,30.456z"/>
		<path fill-rule="evenodd" clip-rule="evenodd" fill="#F3F2F2" d="M60.112,33.278c0.021-0.077,0.042-0.153,0.062-0.23
			c0.065-0.431,0.25-0.841,0.263-1.28c0.019-0.696,0.083-1.397-0.077-2.088c0.003-0.091,0.053-0.126,0.14-0.11
			c0.045,0.252,0.032,0.515,0.128,0.759c0.05,0.421,0.048,0.842,0.001,1.263c-0.115,0.492-0.158,1.002-0.354,1.474
			c-0.044,0.104-0.056,0.224-0.154,0.301C60.095,33.341,60.092,33.311,60.112,33.278z"/>
		<path fill-rule="evenodd" clip-rule="evenodd" fill="#111B39" d="M50.312,41.335c-0.212,0.351-0.246,0.754-0.299,1.14
			c-0.052,0.367-0.087,0.741-0.087,1.119c0,0.448,0.136,0.797,0.524,1.031c0.016,0.023,0.019,0.049,0.001,0.075
			c-0.025,0.017-0.048,0.012-0.07-0.009c-0.127-0.107-0.254-0.216-0.381-0.322c-0.145-0.078-0.149-0.23-0.186-0.365
			c-0.013-0.11,0.006-0.222-0.028-0.331c-0.004-0.031,0-0.064,0.011-0.094c0.023-0.185,0.004-0.372,0.013-0.557
			c0.046-0.36,0.075-0.721,0.148-1.078c0.021-0.103,0.033-0.205,0.107-0.285c0.08-0.093,0.074-0.215,0.112-0.321
			c-0.043-0.082,0.001-0.139,0.055-0.194c0.027-0.011,0.055-0.01,0.081,0.006C50.312,41.211,50.312,41.274,50.312,41.335z"/>
		<path fill-rule="evenodd" clip-rule="evenodd" fill="#F1F2F1" d="M60.438,42.097c0.195,0.669,0.262,1.345,0.129,2.03
			c-0.018,0.095,0,0.267-0.194,0.252c-0.022-0.034-0.02-0.065,0.007-0.098c0.116-0.202,0.092-0.428,0.085-0.643
			c-0.011-0.447,0.005-0.897-0.088-1.34C60.377,42.227,60.375,42.152,60.438,42.097z"/>
		<path fill-rule="evenodd" clip-rule="evenodd" fill="#ECECEC" d="M60.5,29.571c-0.039,0.021-0.077,0.042-0.116,0.063
			c-0.044-0.026-0.044-0.078-0.065-0.117c-0.079-0.277-0.145-0.558-0.271-0.819c-0.08-0.175-0.178-0.342-0.241-0.525l0.006,0.005
			c-0.041-0.03-0.048-0.073-0.05-0.119c0.007-0.03,0.023-0.054,0.048-0.073c0.338,0.401,0.465,0.897,0.625,1.379
			C60.458,29.432,60.479,29.502,60.5,29.571z"/>
		<path fill-rule="evenodd" clip-rule="evenodd" fill="#F1F1F2" d="M49.865,31.249c-0.024,0.417,0.019,0.828,0.133,1.23
			c-0.004,0.01-0.002,0.024-0.009,0.03c-0.01,0.012-0.026,0.022-0.039,0.032c-0.087-0.209-0.112-0.432-0.142-0.655
			c-0.011-0.079,0.011-0.167-0.063-0.229c-0.054-0.42-0.048-0.842-0.003-1.263c0-0.022,0.002-0.043,0.003-0.065
			c0.072-0.014,0.088,0.031,0.093,0.087c0.001,0.122,0,0.244,0,0.364C49.847,30.937,49.816,31.096,49.865,31.249z"/>
		<path fill-rule="evenodd" clip-rule="evenodd" fill="#F0F1F0" d="M49.808,30.393c-0.021-0.022-0.041-0.042-0.063-0.063
			c0.116-0.494,0.177-1.003,0.377-1.474c0.046-0.105,0.019-0.271,0.198-0.288c0.043,0.115-0.005,0.204-0.081,0.287
			c-0.258,0.48-0.317,1.009-0.381,1.536C49.843,30.423,49.824,30.424,49.808,30.393z"/>
		<path fill-rule="evenodd" clip-rule="evenodd" fill="#0C1731" d="M49.944,19.507c-0.075-0.604-0.141-1.209-0.063-1.819
			c0.036-0.069,0.07-0.139,0.106-0.208c0.011-0.005,0.022-0.009,0.034-0.014c0.011,0.006,0.021,0.012,0.032,0.018
			c-0.236,0.626-0.066,1.264-0.055,1.897C50.036,19.447,50.05,19.503,49.944,19.507z"/>
		<path fill-rule="evenodd" clip-rule="evenodd" fill="#EDEEEE" d="M60.438,42.097c-0.001,0.065-0.001,0.131-0.002,0.195
			c-0.177-0.057-0.087-0.218-0.125-0.33c-0.042-0.122-0.072-0.253-0.094-0.384c-0.052-0.163-0.118-0.319-0.179-0.481
			c-0.014-0.089-0.103-0.16-0.059-0.261c0.005-0.017,0.007-0.034,0.006-0.051c0.044-0.052,0.072-0.019,0.089,0.023
			C60.251,41.222,60.424,41.638,60.438,42.097z"/>
		<path fill-rule="evenodd" clip-rule="evenodd" fill="#F6F8F8" d="M60.626,19.379c-0.089-0.071-0.042-0.178-0.071-0.264
			c-0.097-0.153-0.047-0.324-0.051-0.486c-0.01-0.361,0.024-0.725-0.078-1.08c-0.017-0.041-0.035-0.084-0.052-0.125
			c0.182,0.099,0.253,0.221,0.254,0.483C60.631,18.397,60.627,18.888,60.626,19.379z"/>
		<path fill-rule="evenodd" clip-rule="evenodd" fill="#EDEBEC" d="M52.593,37.924c0.001,0.091-0.13,0.039-0.132,0.126
			c-0.182,0.236-0.392,0.445-0.628,0.628c-0.059,0.028-0.117,0.055-0.116,0.133c0.008,0.083-0.04,0.095-0.107,0.089
			c-0.012-0.009-0.023-0.016-0.036-0.023c0.225-0.417,0.6-0.692,0.943-0.997C52.526,37.876,52.567,37.909,52.593,37.924z"/>
		<path fill-rule="evenodd" clip-rule="evenodd" fill="#EBEBEA" d="M49.987,17.48c-0.073-0.211,0.121-0.279,0.227-0.344
			c0.24-0.145,0.509-0.245,0.797-0.096c-0.01,0.05-0.039,0.083-0.091,0.094c-0.364-0.038-0.663,0.088-0.91,0.352L49.987,17.48z"/>
		<path fill-rule="evenodd" clip-rule="evenodd" fill="#F4F4F2" d="M58.712,35.336c0.027-0.024,0.054-0.048,0.08-0.072
			c0,0.242-0.668,0.901-0.89,0.877c0.025-0.022,0.05-0.046,0.075-0.068C58.204,35.809,58.45,35.565,58.712,35.336z"/>
		<path fill-rule="evenodd" clip-rule="evenodd" fill="#F0F0F0" d="M58.809,44.357c0.017,0.005,0.032,0.01,0.048,0.017
			c0.121,0.057,0.176,0.204,0.315,0.237c0.262,0.146,0.549,0.038,0.82,0.081C59.668,45.015,58.932,44.807,58.809,44.357z"/>
		<path fill-rule="evenodd" clip-rule="evenodd" fill="#192843" d="M59.992,44.692c-0.302,0.068-0.6,0.096-0.882-0.069
			c-0.019-0.018-0.023-0.032-0.015-0.045c0.007-0.013,0.015-0.02,0.021-0.02c0.369,0.121,0.732,0.081,1.091-0.044
			C60.135,44.574,60.064,44.633,59.992,44.692z"/>
		<path fill-rule="evenodd" clip-rule="evenodd" fill="#0F1936" d="M51.715,23.121c0.363,0.223,0.669,0.5,0.869,0.881
			c-0.191-0.027-0.266-0.188-0.368-0.319c-0.043-0.043-0.086-0.086-0.128-0.13C51.938,23.431,51.747,23.343,51.715,23.121z"/>
		<path fill-rule="evenodd" clip-rule="evenodd" fill="#F8F7F5" d="M58.792,26.659c-0.025-0.023-0.051-0.046-0.077-0.069
			c-0.285-0.261-0.577-0.516-0.808-0.83c0.033-0.034,0.079-0.049,0.111-0.018c0.248,0.243,0.496,0.486,0.736,0.737
			C58.789,26.518,58.781,26.598,58.792,26.659z"/>
		<path fill-rule="evenodd" clip-rule="evenodd" fill="#101937" d="M50.696,21.717c-0.103-0.21-0.206-0.419-0.308-0.628
			c0.017-0.025,0.018-0.062,0.056-0.069c0.039,0.045,0.079,0.09,0.119,0.134c0.023,0.063,0.046,0.126,0.07,0.189
			c0.115,0.075,0.201,0.165,0.184,0.317c0.023,0.081,0.046,0.163,0.07,0.245c0.029,0.029,0.028,0.055-0.007,0.078
			C50.818,21.894,50.757,21.806,50.696,21.717z"/>
		<path fill-rule="evenodd" clip-rule="evenodd" fill="#111B39" d="M56.645,34.698c0.193-0.191,0.387-0.38,0.579-0.57
			c0.033,0.034,0.05,0.082,0.017,0.11c-0.27,0.233-0.436,0.588-0.809,0.698C56.505,34.856,56.574,34.777,56.645,34.698z"/>
		<path fill-rule="evenodd" clip-rule="evenodd" fill="#131F3E" d="M57.907,25.76c0.278,0.268,0.58,0.513,0.808,0.83
			c-0.346-0.181-0.577-0.481-0.814-0.775C57.907,25.797,57.909,25.779,57.907,25.76z"/>
		<path fill-rule="evenodd" clip-rule="evenodd" fill="#EAEAE9" d="M60.179,17.233c-0.041-0.016-0.082-0.032-0.123-0.048
			c-0.092,0.031-0.169-0.018-0.25-0.045c-0.123-0.051-0.248-0.05-0.372-0.004c-0.096,0.025-0.188,0.071-0.292,0.063
			c-0.012-0.008-0.023-0.018-0.035-0.026C59.424,16.884,60.023,16.917,60.179,17.233z"/>
		<path fill-rule="evenodd" clip-rule="evenodd" fill="#111C3C" d="M57.271,27.853c-0.166-0.21-0.353-0.398-0.565-0.562
			c-0.028-0.039-0.057-0.077-0.085-0.116c0.335,0.088,0.491,0.382,0.7,0.614c0.036,0.04,0,0.098-0.046,0.132
			c-0.018-0.014-0.025-0.029-0.02-0.044C57.259,27.86,57.265,27.853,57.271,27.853z"/>
		<path fill-rule="evenodd" clip-rule="evenodd" fill="#101C3A" d="M50.239,28.855c0.028-0.096,0.055-0.192,0.081-0.287
			c0.077-0.152,0.155-0.304,0.233-0.456c-0.01-0.071,0.028-0.106,0.089-0.125c-0.022,0.362-0.255,0.636-0.392,0.95
			C50.247,28.909,50.242,28.882,50.239,28.855z"/>
		<path fill-rule="evenodd" clip-rule="evenodd" fill="#F9F8F6" d="M50.381,44.692c0.02,0.002,0.04,0,0.059-0.006
			c0.039-0.028,0.084-0.023,0.126-0.014c0.146,0.034,0.29,0.034,0.435,0c0.117-0.019,0.202-0.13,0.331-0.114
			c0.019,0.027,0.017,0.052-0.003,0.078C51.031,44.872,50.588,44.901,50.381,44.692z"/>
		<path fill-rule="evenodd" clip-rule="evenodd" fill="#121C3B" d="M58.224,38.428c-0.225-0.209-0.497-0.377-0.625-0.678
			c0,0.001-0.007-0.021-0.007-0.021c0.194,0.026,0.272,0.189,0.373,0.322c0.113,0.124,0.226,0.247,0.339,0.371
			C58.279,38.456,58.253,38.456,58.224,38.428z"/>
		<path fill-rule="evenodd" clip-rule="evenodd" fill="#EFF0F0" d="M50.261,41.152c-0.028,0.061-0.056,0.124-0.085,0.186
			c-0.043-0.334,0.099-0.591,0.334-0.81c-0.019,0.06-0.039,0.121-0.056,0.179C50.437,40.876,50.373,41.024,50.261,41.152z"/>
		<path fill-rule="evenodd" clip-rule="evenodd" fill="#111B3A" d="M53.167,34.186c0.165,0.149,0.33,0.299,0.496,0.448
			c0.05,0.059,0.101,0.117,0.151,0.175C53.499,34.704,53.296,34.485,53.167,34.186z"/>
		<path fill-rule="evenodd" clip-rule="evenodd" fill="#DADAD8" d="M60.629,31.593c0-0.421,0-0.842-0.001-1.263
			C60.733,30.751,60.731,31.172,60.629,31.593z"/>
		<path fill-rule="evenodd" clip-rule="evenodd" fill="#121C3B" d="M52.202,35.857c0.293,0.066,0.44,0.287,0.571,0.529
			c-0.176,0.015-0.223-0.132-0.302-0.238C52.381,36.05,52.292,35.953,52.202,35.857z"/>
		<path fill-rule="evenodd" clip-rule="evenodd" fill="#13203E" d="M58.224,38.428c0.027-0.002,0.053-0.004,0.08-0.006
			c0.099,0.088,0.198,0.177,0.297,0.265c0.095,0.071,0.24,0.109,0.189,0.279C58.545,38.845,58.396,38.627,58.224,38.428z"/>
		<path fill-rule="evenodd" clip-rule="evenodd" fill="#F1F1EF" d="M54.243,35.897c0.064-0.179,0.23-0.229,0.377-0.303
			c0.025-0.051,0.065-0.054,0.113-0.035C54.638,35.772,54.464,35.867,54.243,35.897z"/>
		<path fill-rule="evenodd" clip-rule="evenodd" fill="#F6F8F4" d="M52.216,23.683c0.123,0.107,0.246,0.213,0.368,0.319
			c0.043,0.048,0.087,0.096,0.13,0.144C52.443,24.105,52.303,23.921,52.216,23.683z"/>
		<path fill-rule="evenodd" clip-rule="evenodd" fill="#131F3E" d="M51.526,35.142c0.238,0.1,0.418,0.257,0.484,0.517
			c-0.101-0.091-0.202-0.182-0.303-0.274C51.62,35.326,51.501,35.287,51.526,35.142z"/>
		<path fill-rule="evenodd" clip-rule="evenodd" fill="#ECECEC" d="M52.471,36.148c0.101,0.079,0.202,0.159,0.302,0.238
			c0.028,0.027,0.056,0.053,0.083,0.078c0.028,0.038,0.081,0.063,0.057,0.123C52.693,36.515,52.522,36.391,52.471,36.148z"/>
		<path fill-rule="evenodd" clip-rule="evenodd" fill="#142242" d="M52.913,36.587c-0.019-0.041-0.038-0.081-0.057-0.123
			c0.192,0.018,0.379-0.005,0.564-0.061c-0.044,0.047-0.089,0.09-0.134,0.135c-0.112,0.126-0.242,0.109-0.378,0.048H52.913z"/>
		<path fill-rule="evenodd" clip-rule="evenodd" fill="#F4F5F5" d="M51.715,23.121c0.124,0.144,0.248,0.288,0.373,0.433
			c-0.243-0.063-0.386-0.22-0.433-0.465c0.021-0.007,0.038-0.002,0.051,0.016L51.715,23.121z"/>
		<path fill-rule="evenodd" clip-rule="evenodd" fill="#EFF1EE" d="M60.112,33.278c0.004,0.029,0.006,0.06,0.009,0.09
			c-0.08,0.21-0.114,0.447-0.348,0.561C59.886,33.713,59.999,33.494,60.112,33.278z"/>
		<path fill-rule="evenodd" clip-rule="evenodd" fill="#131F3E" d="M50.312,33.244c0-0.021,0-0.043,0.002-0.064
			c0.128,0.193,0.296,0.37,0.263,0.631C50.471,33.631,50.355,33.453,50.312,33.244z"/>
		<path fill-rule="evenodd" clip-rule="evenodd" fill="#101C3A" d="M53.726,27.227c-0.102,0.085-0.205,0.17-0.307,0.255
			c0.076-0.224,0.218-0.359,0.46-0.434C53.828,27.108,53.777,27.167,53.726,27.227z"/>
		<path fill-rule="evenodd" clip-rule="evenodd" fill="#222B48" d="M57.736,25.697c-0.16-0.108-0.337-0.182-0.525-0.226
			c0.024-0.024,0.049-0.047,0.073-0.071c0.098-0.078,0.173-0.035,0.242,0.045C57.615,25.514,57.738,25.553,57.736,25.697z"/>
		<path fill-rule="evenodd" clip-rule="evenodd" fill="#0D1936" d="M50.88,21.983c0.003-0.026,0.005-0.051,0.007-0.077
			c0.144,0.153,0.29,0.305,0.303,0.533C51.054,22.309,50.936,22.167,50.88,21.983z"/>
		<path fill-rule="evenodd" clip-rule="evenodd" fill="#EDEEEC" d="M56.964,37.224c-0.033-0.071-0.154-0.087-0.133-0.196
			c0.015-0.079,0.081-0.044,0.126-0.055c-0.018,0.131,0.176,0.176,0.127,0.317C57.012,37.328,56.987,37.276,56.964,37.224z"/>
		<path fill-rule="evenodd" clip-rule="evenodd" fill="#F6F6F3" d="M57.964,38.051c-0.124-0.107-0.247-0.215-0.373-0.322
			C57.827,37.708,57.913,37.861,57.964,38.051z"/>
		<path fill-rule="evenodd" clip-rule="evenodd" fill="#14223E" d="M57.409,24.3c0.065-0.194,0.174-0.337,0.399-0.348
			c-0.052,0.058-0.105,0.116-0.158,0.174c-0.059,0.099-0.115,0.198-0.248,0.208l0.015-0.014L57.409,24.3z"/>
		<path fill-rule="evenodd" clip-rule="evenodd" fill="#F9F9F7" d="M53.287,24.635c0.071,0.097,0.318,0.091,0.184,0.31
			c-0.014,0.024-0.031,0.028-0.053,0.008C53.43,24.824,53.244,24.777,53.287,24.635z"/>
		<path fill-rule="evenodd" clip-rule="evenodd" fill="#131F3D" d="M52.834,24.215c0.21-0.024,0.27,0.124,0.321,0.281
			c-0.117,0.051-0.136-0.053-0.179-0.117C52.928,24.324,52.881,24.269,52.834,24.215z"/>
		<path fill-rule="evenodd" clip-rule="evenodd" fill="#EAE7E6" d="M58.539,17.929c0.02-0.021,0.042-0.043,0.063-0.065
			c0.032-0.07-0.015-0.206,0.143-0.168c-0.019,0.127-0.041,0.253-0.144,0.345C58.58,18.003,58.559,17.967,58.539,17.929z"/>
		<path fill-rule="evenodd" clip-rule="evenodd" fill="#121E3C" d="M56.316,35.028c-0.051,0.157-0.112,0.303-0.321,0.277
			c0.026-0.035,0.051-0.069,0.078-0.103C56.137,35.119,56.173,34.998,56.316,35.028z"/>
		<path fill-rule="evenodd" clip-rule="evenodd" fill="#F7F7F5" d="M59.817,40.45c-0.067-0.124-0.134-0.251-0.202-0.379
			C59.8,40.137,59.858,40.267,59.817,40.45z"/>
		<path fill-rule="evenodd" clip-rule="evenodd" fill="#121D3D" d="M51.378,26.976c-0.001,0.161-0.118,0.232-0.235,0.303
			c-0.029,0.004-0.043-0.01-0.035-0.039c-0.014-0.17,0.198-0.14,0.234-0.265C51.354,26.974,51.366,26.975,51.378,26.976z"/>
		<path fill-rule="evenodd" clip-rule="evenodd" fill="#152642" d="M56.191,26.783c0.171,0.035,0.285,0.128,0.317,0.307l-0.01,0.017
			l0.014,0.015c-0.099-0.003-0.145-0.07-0.186-0.148c-0.044-0.036-0.088-0.073-0.132-0.11c-0.054,0.006-0.077-0.021-0.073-0.073
			C56.142,26.766,56.166,26.763,56.191,26.783z"/>
		<path fill-rule="evenodd" clip-rule="evenodd" fill="#F8F7F5" d="M51.526,35.142c0.061,0.082,0.122,0.163,0.182,0.244
			c-0.174-0.028-0.295-0.105-0.267-0.307C51.468,35.1,51.497,35.122,51.526,35.142z"/>
		<path fill-rule="evenodd" clip-rule="evenodd" fill="#EFEFEE" d="M50.946,17.092c0.023-0.017,0.043-0.035,0.065-0.052
			c0.123,0.033,0.303-0.028,0.31,0.193c-0.041-0.016-0.082-0.033-0.124-0.049C51.091,17.21,51.01,17.179,50.946,17.092z"/>
		<path fill-rule="evenodd" clip-rule="evenodd" fill="#131E3D" d="M52.842,25.457c-0.05,0.163-0.111,0.311-0.324,0.295
			c0.026-0.035,0.051-0.07,0.075-0.104C52.657,25.559,52.699,25.443,52.842,25.457z"/>
		<path fill-rule="evenodd" clip-rule="evenodd" fill="#F9F8F8" d="M58.918,17.418c-0.025,0.021-0.049,0.042-0.073,0.063
			c-0.056-0.221,0.108-0.26,0.26-0.308h0.01c0.016,0.027,0.014,0.053-0.002,0.079C59.051,17.309,59.003,17.386,58.918,17.418z"/>
		<path fill-rule="evenodd" clip-rule="evenodd" fill="#192541" d="M55.938,35.35c-0.049,0.168-0.14,0.286-0.335,0.28
			c0.03-0.038,0.06-0.075,0.089-0.112c0.045-0.094,0.116-0.157,0.217-0.183C55.919,35.341,55.929,35.347,55.938,35.35z"/>
		<path fill-rule="evenodd" clip-rule="evenodd" fill="#F8F7F5" d="M59.322,34.57c0.01-0.144,0.185-0.145,0.228-0.262
			c0.034,0.021,0.036,0.047,0.005,0.074C59.518,34.495,59.504,34.638,59.322,34.57z"/>
		<path fill-rule="evenodd" clip-rule="evenodd" fill="#141E3C" d="M51.378,26.976c-0.012,0-0.024-0.001-0.036-0.001l-0.017-0.013
			l-0.017,0.013c-0.002-0.102,0.065-0.147,0.146-0.183c0.06-0.053,0.117-0.108,0.175-0.161
			C51.644,26.818,51.511,26.897,51.378,26.976z"/>
		<path fill-rule="evenodd" clip-rule="evenodd" fill="#182644" d="M57.409,36.572c0.043-0.172,0.141-0.28,0.328-0.285
			c-0.028,0.038-0.056,0.078-0.085,0.117c-0.062,0.095-0.117,0.198-0.25,0.206l0.017-0.017L57.409,36.572z"/>
		<path fill-rule="evenodd" clip-rule="evenodd" fill="#19223E" d="M51.705,23.104c-0.017-0.005-0.034-0.011-0.051-0.016
			c-0.027-0.07-0.068-0.13-0.137-0.168c-0.049-0.022-0.098-0.048-0.066-0.118C51.664,22.796,51.688,22.946,51.705,23.104z"/>
		<path fill-rule="evenodd" clip-rule="evenodd" fill="#132040" d="M52.965,37.619c-0.042,0.174-0.137,0.289-0.332,0.289
			c0.028-0.037,0.058-0.075,0.087-0.113C52.784,37.714,52.821,37.593,52.965,37.619z"/>
		<path fill-rule="evenodd" clip-rule="evenodd" fill="#F8F8F5" d="M56.316,35.028c-0.08,0.058-0.162,0.116-0.242,0.175
			c0.056-0.199,0.077-0.216,0.316-0.255C56.365,34.976,56.341,35.001,56.316,35.028z"/>
		<path fill-rule="evenodd" clip-rule="evenodd" fill="#141F3E" d="M51.043,39.683c0.066,0.173-0.061,0.244-0.166,0.328
			c-0.015,0-0.029,0-0.042,0C50.904,39.903,50.973,39.794,51.043,39.683z"/>
		<path fill-rule="evenodd" clip-rule="evenodd" fill="#F6F7F2" d="M58.918,26.788c0.172-0.008,0.215,0.118,0.257,0.247
			c0.017,0.015,0.023,0.03,0.02,0.048c-0.005,0.017-0.008,0.026-0.012,0.026c-0.109,0.036-0.097-0.085-0.153-0.116
			C58.991,26.926,58.881,26.898,58.918,26.788z"/>
		<path fill-rule="evenodd" clip-rule="evenodd" fill="#14203F" d="M54.183,35.11c-0.195,0.069-0.213-0.082-0.254-0.208
			l-0.007-0.022c0.11-0.024,0.143,0.061,0.186,0.131C54.133,35.044,54.159,35.077,54.183,35.11z"/>
		<path fill-rule="evenodd" clip-rule="evenodd" fill="#101938" d="M58.805,35.221c0.011-0.154,0.063-0.267,0.242-0.269
			c0.033,0.071-0.015,0.094-0.067,0.116C58.921,35.119,58.864,35.17,58.805,35.221z"/>
		<path fill-rule="evenodd" clip-rule="evenodd" fill="#0E1A36" d="M57.018,25.611c-0.047,0.114-0.078,0.254-0.255,0.159
			C56.803,25.644,56.931,25.661,57.018,25.611z"/>
		<path fill-rule="evenodd" clip-rule="evenodd" fill="#F8F7F4" d="M52.842,25.457c-0.083,0.064-0.165,0.128-0.249,0.191
			c0-0.175,0.118-0.226,0.261-0.251C52.846,25.416,52.842,25.436,52.842,25.457z"/>
		<path fill-rule="evenodd" clip-rule="evenodd" fill="#202A47" d="M56.964,37.224c0.039,0.023,0.08,0.044,0.119,0.067
			c0.031,0.023,0.061,0.046,0.092,0.068c0.026,0.006,0.046,0.019,0.061,0.043c0.002,0.025-0.008,0.048-0.025,0.068
			c-0.105-0.059-0.211-0.119-0.316-0.18C56.918,37.267,56.941,37.247,56.964,37.224z"/>
		<path fill-rule="evenodd" clip-rule="evenodd" fill="#141D3D" d="M53.218,25.149c-0.038,0.13-0.065,0.272-0.257,0.222
			c0.024-0.034,0.05-0.069,0.077-0.103C53.079,25.201,53.106,25.111,53.218,25.149z"/>
		<path fill-rule="evenodd" clip-rule="evenodd" fill="#F5F6F2" d="M59.554,34.383c-0.002-0.026-0.002-0.05-0.005-0.074
			c0.013-0.102,0.037-0.198,0.145-0.242C59.768,34.225,59.651,34.299,59.554,34.383z"/>
		<path fill-rule="evenodd" clip-rule="evenodd" fill="#F4F5F4" d="M57.402,36.61c0.084-0.07,0.167-0.138,0.25-0.206
			C57.641,36.559,57.576,36.65,57.402,36.61z"/>
		<path fill-rule="evenodd" clip-rule="evenodd" fill="#F7F7F2" d="M53.218,25.149c-0.06,0.04-0.121,0.079-0.18,0.119
			c0.034-0.183,0.071-0.213,0.248-0.203c0.014,0.044-0.035,0.045-0.047,0.071l-0.017-0.002L53.218,25.149z"/>
		<path fill-rule="evenodd" clip-rule="evenodd" fill="#0F1937" d="M58.918,26.788c0.041,0.063,0.085,0.126,0.128,0.19
			c0.019,0.013,0.024,0.026,0.016,0.038c-0.007,0.011-0.014,0.017-0.021,0.017c-0.121-0.082-0.25-0.158-0.238-0.335
			C58.842,26.727,58.881,26.758,58.918,26.788z"/>
		<path fill-rule="evenodd" clip-rule="evenodd" fill="#0E1A39" d="M50.694,34.003c0.133,0.06,0.251,0.127,0.194,0.306
			c-0.064-0.083-0.128-0.166-0.194-0.248c-0.015-0.013-0.021-0.026-0.015-0.04C50.684,34.009,50.689,34.003,50.694,34.003z"/>
		<path fill-rule="evenodd" clip-rule="evenodd" fill="#FAF9F8" d="M57.402,24.334c0.082-0.069,0.165-0.139,0.248-0.208
			C57.644,24.287,57.574,24.371,57.402,24.334z"/>
		<path fill-rule="evenodd" clip-rule="evenodd" fill="#F8F7F6" d="M52.965,37.619c-0.081,0.058-0.163,0.117-0.245,0.177
			c0.004-0.186,0.126-0.238,0.286-0.247C52.993,37.572,52.978,37.595,52.965,37.619z"/>
		<path fill-rule="evenodd" clip-rule="evenodd" fill="#F9F8F5" d="M58.789,38.966c-0.062-0.093-0.126-0.186-0.189-0.279
			c0.192-0.004,0.237,0.123,0.249,0.28l-0.029-0.01L58.789,38.966z"/>
		<path fill-rule="evenodd" clip-rule="evenodd" fill="#F6F6F3" d="M59.811,27.985c-0.004,0.025-0.006,0.051-0.01,0.076
			c-0.127-0.009-0.118-0.113-0.135-0.198c-0.017-0.043-0.034-0.085-0.05-0.128C59.806,27.721,59.757,27.894,59.811,27.985z"/>
		<path fill-rule="evenodd" clip-rule="evenodd" fill="#FAF9F7" d="M51.329,44.635c-0.002-0.02-0.004-0.038-0.004-0.057
			c0.024-0.089,0.102-0.134,0.158-0.199c0.022-0.021,0.049-0.026,0.077-0.021l0.007,0.009
			C51.575,44.532,51.471,44.601,51.329,44.635z"/>
		<path fill-rule="evenodd" clip-rule="evenodd" fill="#15213F" d="M57.211,37.469l0.001-0.024c0.087-0.042,0.101-0.034,0.186,0.099
			c0.028,0.038,0.058,0.076,0.087,0.113C57.337,37.676,57.265,37.585,57.211,37.469z"/>
		<path fill-rule="evenodd" clip-rule="evenodd" fill="#1A2742" d="M53.537,37.161c0.027,0.192-0.114,0.179-0.235,0.189
			c0.039-0.04,0.076-0.083,0.112-0.123C53.441,37.177,53.468,37.128,53.537,37.161z"/>
		<path fill-rule="evenodd" clip-rule="evenodd" fill="#14213F" d="M57.093,36.834c0.019-0.158,0.107-0.236,0.268-0.229
			c-0.03,0.038-0.059,0.077-0.089,0.115c-0.039,0.076-0.085,0.145-0.184,0.146l0.013-0.015L57.093,36.834z"/>
		<path fill-rule="evenodd" clip-rule="evenodd" fill="#FDFCFA" d="M52.908,36.587c0.13,0.008,0.259,0.022,0.378-0.048
			C53.184,36.743,53.046,36.671,52.908,36.587z"/>
		<path fill-rule="evenodd" clip-rule="evenodd" fill="#15203E" d="M54.498,35.39c-0.147-0.012-0.238-0.084-0.254-0.238l0.008-0.017
			l-0.014-0.014c0.101-0.003,0.146,0.067,0.185,0.145C54.448,35.307,54.474,35.349,54.498,35.39z"/>
		<path fill-rule="evenodd" clip-rule="evenodd" fill="#16223F" d="M57.091,24.552c0.025-0.155,0.111-0.232,0.27-0.223
			c-0.03,0.037-0.061,0.075-0.091,0.112c-0.038,0.079-0.083,0.149-0.186,0.146l0.018-0.015L57.091,24.552z"/>
		<path fill-rule="evenodd" clip-rule="evenodd" fill="#1A243E" d="M53.239,25.136c0.015-0.024,0.032-0.047,0.047-0.071
			c0.044-0.037,0.089-0.074,0.132-0.112c0.017-0.002,0.034-0.006,0.053-0.008C53.489,25.125,53.374,25.142,53.239,25.136z"/>
		<path fill-rule="evenodd" clip-rule="evenodd" fill="#111D3C" d="M55.002,26.138c0.028-0.131,0.065-0.253,0.244-0.19
			C55.165,26.011,55.083,26.074,55.002,26.138z"/>
		<path fill-rule="evenodd" clip-rule="evenodd" fill="#182542" d="M51.46,39.16c-0.027,0.107-0.023,0.245-0.199,0.216
			c0.044-0.074,0.089-0.149,0.134-0.223c0.007-0.023,0.021-0.037,0.044-0.047C51.46,39.12,51.468,39.136,51.46,39.16z"/>
		<path fill-rule="evenodd" clip-rule="evenodd" fill="#0F1937" d="M50.834,40.011c0.013,0.001,0.028,0.001,0.042,0
			c-0.027,0.111-0.011,0.251-0.186,0.253C50.739,40.18,50.785,40.095,50.834,40.011z"/>
		<path fill-rule="evenodd" clip-rule="evenodd" fill="#F5F5F4" d="M50.643,27.987c-0.029,0.041-0.06,0.083-0.089,0.125
			c-0.077-0.165,0.038-0.239,0.148-0.317C50.683,27.859,50.662,27.923,50.643,27.987z"/>
		<path fill-rule="evenodd" clip-rule="evenodd" fill="#F5F6F4" d="M50.694,34.003c0,0.018,0,0.039,0,0.058
			c-0.165-0.018-0.196-0.111-0.144-0.253C50.597,33.874,50.647,33.937,50.694,34.003z"/>
		<path fill-rule="evenodd" clip-rule="evenodd" fill="#12203C" d="M55.622,25.705c-0.088-0.186,0.053-0.164,0.159-0.175
			C55.695,25.558,55.732,25.698,55.622,25.705z"/>
		<path fill-rule="evenodd" clip-rule="evenodd" fill="#F9F8F6" d="M51.451,22.803c0.022,0.039,0.045,0.079,0.066,0.118
			c-0.151,0.023-0.189-0.045-0.143-0.18C51.4,22.762,51.425,22.782,51.451,22.803z"/>
		<path fill-rule="evenodd" clip-rule="evenodd" fill="#111B3A" d="M54.743,36.279c0.009,0.144-0.049,0.195-0.187,0.135
			C54.618,36.37,54.682,36.324,54.743,36.279z"/>
		<path fill-rule="evenodd" clip-rule="evenodd" fill="#F8F8F5" d="M55.561,35.626c-0.061,0.048-0.123,0.097-0.185,0.145
			C55.36,35.625,55.426,35.582,55.561,35.626z"/>
		<path fill-rule="evenodd" clip-rule="evenodd" fill="#FAF9F4" d="M56.326,26.974c0.063,0.049,0.124,0.099,0.186,0.148
			C56.378,27.163,56.309,27.123,56.326,26.974z"/>
		<path fill-rule="evenodd" clip-rule="evenodd" fill="#F6F6F2" d="M56.133,26.786c0.021,0.026,0.04,0.052,0.061,0.078
			c-0.134,0.046-0.203,0.008-0.182-0.144C56.081,26.689,56.108,26.737,56.133,26.786z"/>
		<path fill-rule="evenodd" clip-rule="evenodd" fill="#F9FAF7" d="M51.454,26.791c-0.048,0.061-0.097,0.122-0.146,0.183
			C51.265,26.84,51.298,26.766,51.454,26.791z"/>
		<path fill-rule="evenodd" clip-rule="evenodd" fill="#0E1836" d="M56.133,26.786c-0.04-0.021-0.081-0.044-0.121-0.065
			c-0.03-0.037-0.06-0.074-0.089-0.111c0.141-0.023,0.21,0.065,0.267,0.174C56.171,26.783,56.151,26.783,56.133,26.786z"/>
		<path fill-rule="evenodd" clip-rule="evenodd" fill="#F7F7F4" d="M55.248,25.98c0.063-0.048,0.126-0.096,0.189-0.144
			C55.452,25.987,55.382,26.026,55.248,25.98z"/>
		<path fill-rule="evenodd" clip-rule="evenodd" fill="#FBF9F6" d="M57.084,24.588c0.062-0.048,0.124-0.097,0.186-0.146
			C57.292,24.597,57.219,24.631,57.084,24.588z"/>
		<path fill-rule="evenodd" clip-rule="evenodd" fill="#FDFDF9" d="M57.526,25.446c-0.08-0.015-0.161-0.03-0.242-0.045
			C57.362,25.292,57.439,25.307,57.526,25.446z"/>
		<path fill-rule="evenodd" clip-rule="evenodd" fill="#F7F5F3" d="M57.088,36.866c0.061-0.049,0.123-0.098,0.184-0.146
			C57.289,36.87,57.221,36.909,57.088,36.866z"/>
		<path fill-rule="evenodd" clip-rule="evenodd" fill="#F7F7F3" d="M59.17,27.107c0.002-0.025,0.003-0.048,0.005-0.072
			c0.07,0.072,0.22,0.099,0.136,0.254c-0.024-0.021-0.05-0.041-0.074-0.062C59.187,27.202,59.14,27.176,59.17,27.107z"/>
		<path fill-rule="evenodd" clip-rule="evenodd" fill="#121F3D" d="M54.291,36.605c-0.014,0.106-0.031,0.208-0.179,0.131
			C54.176,36.697,54.161,36.551,54.291,36.605z"/>
		<path fill-rule="evenodd" clip-rule="evenodd" fill="#FAFAF7" d="M52.977,24.379c0.058,0.038,0.118,0.077,0.179,0.117
			c0.014,0.023,0.026,0.046,0.041,0.069C53.08,24.552,52.944,24.565,52.977,24.379z"/>
		<path fill-rule="evenodd" clip-rule="evenodd" fill="#F6F7F5" d="M55.91,35.335c-0.072,0.061-0.144,0.122-0.217,0.183
			C55.669,35.344,55.794,35.344,55.91,35.335z"/>
		<path fill-rule="evenodd" clip-rule="evenodd" fill="#F6F6F6" d="M51.452,39.14c-0.02,0-0.039,0.005-0.056,0.014
			c-0.011-0.14,0.065-0.221,0.179-0.276l0.009-0.001C51.66,39.024,51.523,39.066,51.452,39.14z"/>
		<path fill-rule="evenodd" clip-rule="evenodd" fill="#F7F7F5" d="M59.062,39.246c-0.047-0.062-0.095-0.122-0.143-0.185
			C59.065,39.048,59.112,39.112,59.062,39.246z"/>
		<path fill-rule="evenodd" clip-rule="evenodd" fill="#F6F7F5" d="M54.423,35.267c-0.061-0.049-0.124-0.097-0.185-0.145
			C54.375,35.075,54.441,35.116,54.423,35.267z"/>
		<path fill-rule="evenodd" clip-rule="evenodd" fill="#FAF8F6" d="M55.06,36.013c-0.064,0.047-0.126,0.093-0.19,0.139
			C54.859,36.002,54.921,35.956,55.06,36.013z"/>
		<path fill-rule="evenodd" clip-rule="evenodd" fill="#101B39" d="M55.254,35.9c-0.009,0.14-0.051,0.171-0.195,0.144
			C55.123,35.995,55.189,35.947,55.254,35.9z"/>
		<path fill-rule="evenodd" clip-rule="evenodd" fill="#FAF9F5" d="M58.979,35.067c0.022-0.038,0.045-0.077,0.067-0.116
			c0.026-0.019,0.053-0.042,0.079-0.063C59.167,35.023,59.136,35.095,58.979,35.067z"/>
		<path fill-rule="evenodd" clip-rule="evenodd" fill="#F8F8F6" d="M54.109,35.012c-0.063-0.043-0.126-0.087-0.186-0.131
			C54.067,34.807,54.117,34.867,54.109,35.012z"/>
		<path fill-rule="evenodd" clip-rule="evenodd" fill="#F5F8F5" d="M57.398,37.544c-0.075-0.01-0.097-0.119-0.186-0.099
			c-0.012-0.029-0.024-0.057-0.036-0.087C57.293,37.369,57.422,37.363,57.398,37.544z"/>
		<path fill-rule="evenodd" clip-rule="evenodd" fill="#F7F7F6" d="M53.537,37.161c-0.041,0.022-0.082,0.044-0.123,0.066
			c-0.012-0.144,0.047-0.193,0.186-0.14C53.578,37.111,53.559,37.136,53.537,37.161z"/>
		<path fill-rule="evenodd" clip-rule="evenodd" fill="#14223E" d="M60.377,44.321c0,0.018-0.002,0.037-0.004,0.057
			c-0.03,0.024-0.063,0.049-0.095,0.076c-0.102-0.131,0.037-0.149,0.095-0.205c0.019,0.014,0.026,0.032,0.021,0.047
			C60.389,44.313,60.384,44.321,60.377,44.321z"/>
		<path fill-rule="evenodd" clip-rule="evenodd" fill="#1F2B42" d="M51.108,27.24c0.017,0.007,0.029,0.019,0.035,0.039
			c-0.016,0.062-0.004,0.142-0.094,0.156c-0.01,0.002-0.025-0.042-0.038-0.066C51.043,27.325,51.076,27.283,51.108,27.24z"/>
		<path fill-rule="evenodd" clip-rule="evenodd" fill="#D8D9D9" d="M53.41,34.255c0.059-0.125,0.169-0.042,0.254-0.062
			C53.595,34.279,53.496,34.243,53.41,34.255z"/>
		<path fill-rule="evenodd" clip-rule="evenodd" fill="#0A112B" d="M51.836,30.444c0.042,0,0.081,0,0.123,0
			c0.112-0.037,0.229-0.018,0.344-0.018c1.953-0.002,3.906-0.001,5.86-0.001c0.065,0.021,0.174-0.051,0.181,0.089
			c-2.149,0.003-4.299,0.006-6.448,0.01C51.877,30.498,51.856,30.471,51.836,30.444z"/>
		<path fill-rule="evenodd" clip-rule="evenodd" fill="#172948" d="M56.068,41.082c0.024,0,0.047,0,0.071,0
			c0.632-0.044,1.263-0.048,1.893,0.003c-0.103,0.109-0.238,0.06-0.359,0.063c-1.757,0.004-3.515,0.004-5.273,0.006
			c0.024-0.025,0.048-0.048,0.07-0.074c0.249-0.04,0.498-0.042,0.747,0c0.025,0,0.049,0,0.074,0.001
			C54.217,41.038,55.143,41.038,56.068,41.082z"/>
		<path fill-rule="evenodd" clip-rule="evenodd" fill="#0F3A5E" d="M52.781,28.81c0.021,0,0.043,0,0.064,0
			c0.337-0.049,0.676-0.088,1.012,0c1.393,0,2.784,0,4.177,0.001c0,0.022-0.002,0.044-0.002,0.066
			c-0.068,0.041-0.142,0.027-0.215,0.027c-1.733,0-3.467,0-5.201,0c-0.073,0-0.149,0.016-0.215-0.033
			C52.513,28.764,52.654,28.829,52.781,28.81z"/>
		<path fill-rule="evenodd" clip-rule="evenodd" fill="#0C1430" d="M52.401,28.872c1.878,0.002,3.753,0.003,5.631,0.005
			c0,0.016-0.002,0.033-0.005,0.049c-1.748,0.003-3.497,0.006-5.244,0.011c-0.127,0-0.252,0.013-0.378,0.02
			C52.405,28.929,52.402,28.901,52.401,28.872z"/>
		<path fill-rule="evenodd" clip-rule="evenodd" fill="#14203C" d="M60.362,29.509c0.008,0.042,0.015,0.083,0.022,0.125
			c0.255,1.158,0.199,2.297-0.21,3.415c-0.108-0.232,0.086-0.412,0.108-0.626c0.03-0.301,0.098-0.598,0.148-0.898
			c-0.038-0.355-0.04-0.709,0.001-1.063c-0.041-0.296-0.082-0.594-0.122-0.89C60.276,29.508,60.312,29.502,60.362,29.509z"/>
		<path fill-rule="evenodd" clip-rule="evenodd" fill="#080E28" d="M53.165,34.069c-0.04-0.023-0.045-0.047-0.003-0.074
			c0.093-0.088,0.212-0.098,0.327-0.084c1.145,0.126,2.293,0.024,3.439,0.058c0.094,0.002,0.191-0.021,0.28,0.026
			c0.009,0.015,0.02,0.029,0.025,0.045c0.001,0.004-0.012,0.014-0.019,0.022c-0.046,0.032-0.098,0.032-0.151,0.032
			c-1.258,0-2.517,0-3.776,0C53.244,34.094,53.204,34.088,53.165,34.069z"/>
		<path fill-rule="evenodd" clip-rule="evenodd" fill="#A2AEBB" d="M53.165,34.069c1.35-0.002,2.699-0.005,4.049-0.006
			c-0.004,0.022-0.007,0.044-0.01,0.067c-1.345,0-2.691,0-4.035,0.001C53.162,34.111,53.16,34.091,53.165,34.069z"/>
		<path fill-rule="evenodd" clip-rule="evenodd" fill="#0E3860" d="M57.208,33.996c-1.348,0-2.697,0-4.046,0
			c0-0.019-0.001-0.04-0.001-0.059l0,0c0.191-0.156,0.38-0.075,0.57-0.001c1.049,0,2.099,0,3.149,0.002
			C56.99,33.937,57.112,33.9,57.208,33.996z"/>
		<path fill-rule="evenodd" clip-rule="evenodd" fill="#103056" d="M59.637,28.922c-0.043,0.082-0.103,0.089-0.179,0.107
			c-0.115,0.026-0.306,0.003-0.272,0.235c0.009,0.063-0.07,0.149-0.144,0.127c-0.118-0.035-0.264-0.081-0.327-0.171
			c-0.082-0.119,0.048-0.115,0.131-0.115c0.007,0,0.023-0.03,0.022-0.044c-0.01-0.074-0.199-0.131-0.042-0.218
			c0.103-0.058,0.147,0.1,0.232,0.122c0.136,0.035,0.269,0.012,0.383-0.077C59.524,28.821,59.585,28.838,59.637,28.922z"/>
		<path fill-rule="evenodd" clip-rule="evenodd" fill="#103056" d="M53.73,33.935c-0.19,0-0.379,0.001-0.57,0.001
			c-0.048-0.115-0.174-0.184-0.189-0.317c0.158-0.141,0.311-0.164,0.441,0.034c0.165,0.252,0.239,0.135,0.288-0.074
			C53.917,33.691,53.753,33.817,53.73,33.935z"/>
		<path fill-rule="evenodd" clip-rule="evenodd" fill="#0F385E" d="M56.068,41.082c-0.926,0-1.851,0-2.776,0
			c0.373-0.132,0.756-0.024,1.134-0.058c0.449,0,0.897-0.002,1.345,0C55.873,41.025,55.982,40.994,56.068,41.082z"/>
		<path fill-rule="evenodd" clip-rule="evenodd" fill="#1A2642" d="M58.547,30.33c-0.091-0.295-0.183-0.59-0.273-0.885
			c0.007-0.019,0.009-0.039,0.007-0.059C58.518,29.659,58.597,29.976,58.547,30.33z"/>
		<path fill-rule="evenodd" clip-rule="evenodd" fill="#103056" d="M53.492,33.324c0.21-0.233,0.49-0.089,0.738-0.127
			C54.01,33.356,53.734,33.254,53.492,33.324z"/>
		<path fill-rule="evenodd" clip-rule="evenodd" fill="#132041" d="M58.712,35.336c-0.211,0.28-0.457,0.523-0.735,0.736
			C58.151,35.756,58.396,35.51,58.712,35.336z"/>
		<path fill-rule="evenodd" clip-rule="evenodd" fill="#182644" d="M60.362,29.509c-0.018,0.021-0.035,0.042-0.052,0.063
			c-0.099-0.271-0.213-0.537-0.252-0.827c-0.031-0.028-0.029-0.053,0.008-0.075C60.226,28.927,60.273,29.226,60.362,29.509z"/>
		<path fill-rule="evenodd" clip-rule="evenodd" fill="#152142" d="M51.833,38.679c0.186-0.232,0.396-0.441,0.629-0.628
			C52.33,38.34,52.121,38.548,51.833,38.679z"/>
		<path fill-rule="evenodd" clip-rule="evenodd" fill="#103056" d="M52.76,33.383c0.173-0.201,0.32-0.244,0.498-0.124
			c0.034,0.025,0.066,0.056,0.044,0.103c-0.02,0.039-0.084,0.066-0.099,0.034C53.085,33.167,52.945,33.388,52.76,33.383z"/>
		<path fill-rule="evenodd" clip-rule="evenodd" fill="#0C385F" d="M60.432,30.462c-0.001,0.354-0.001,0.709-0.001,1.063
			C60.339,31.17,60.338,30.816,60.432,30.462z"/>
		<path fill-rule="evenodd" clip-rule="evenodd" fill="#0F3A60" d="M53.218,41.081c-0.249,0-0.498,0-0.747,0
			C52.72,40.99,52.969,40.99,53.218,41.081z"/>
		<path fill-rule="evenodd" clip-rule="evenodd" fill="#0F1836" d="M60.066,28.669c-0.004,0.025-0.005,0.051-0.008,0.075
			c-0.13-0.17-0.242-0.349-0.251-0.572C59.924,28.322,60.024,28.48,60.066,28.669z"/>
		<path fill-rule="evenodd" clip-rule="evenodd" fill="#1D2B49" d="M50.261,41.152c0.051-0.154,0.094-0.31,0.192-0.445
			c0.102,0.195-0.047,0.31-0.141,0.443C50.295,41.15,50.279,41.152,50.261,41.152z"/>
		<path fill-rule="evenodd" clip-rule="evenodd" fill="#111D3C" d="M51.452,39.14c0.016-0.102,0.148-0.146,0.132-0.263
			c0.052-0.007,0.113,0.007,0.134-0.065c0.052,0.217-0.134,0.26-0.257,0.348L51.452,39.14z"/>
		<path fill-rule="evenodd" clip-rule="evenodd" fill="#142140" d="M54.048,39.173c-0.065,0.068-0.131,0.134-0.197,0.202
			c-0.04,0.075-0.074,0.157-0.183,0.132l0.008-0.019c0.056-0.19,0.177-0.311,0.373-0.356C54.048,39.149,54.048,39.16,54.048,39.173z
			"/>
		<path fill-rule="evenodd" clip-rule="evenodd" fill="#152542" d="M54.682,38.669c-0.044,0.046-0.089,0.092-0.133,0.137
			c-0.038,0.078-0.081,0.149-0.185,0.144l0.016-0.016l-0.009-0.02C54.426,38.774,54.468,38.612,54.682,38.669z"/>
		<path fill-rule="evenodd" clip-rule="evenodd" fill="#103056" d="M51.769,31.215c0.053-0.065,0.103-0.211,0.189-0.126
			c0.086,0.087-0.061,0.136-0.126,0.189C51.812,31.257,51.79,31.237,51.769,31.215z"/>
		<path fill-rule="evenodd" clip-rule="evenodd" fill="#172142" d="M55.683,38.72c-0.134-0.001-0.108-0.155-0.192-0.201
			c0.165-0.069,0.178,0.053,0.201,0.162C55.687,38.692,55.684,38.706,55.683,38.72z"/>
		<path fill-rule="evenodd" clip-rule="evenodd" fill="#142240" d="M54.048,39.173c0-0.013,0-0.025,0-0.042
			c0.055-0.114,0.129-0.206,0.275-0.185c-0.029,0.038-0.06,0.076-0.09,0.112c-0.037,0.08-0.084,0.147-0.184,0.147l0.011-0.018
			L54.048,39.173z"/>
		<path fill-rule="evenodd" clip-rule="evenodd" fill="#103056" d="M52.976,33.631c-0.092-0.032-0.177-0.061-0.326-0.112
			C52.83,33.49,52.937,33.46,52.976,33.631z"/>
		<path fill-rule="evenodd" clip-rule="evenodd" fill="#1B2846" d="M53.334,39.827c0.003,0.013,0.007,0.025,0.011,0.037
			c-0.018,0.104-0.092,0.159-0.176,0.206l-0.014-0.011l-0.014,0.009C53.082,39.891,53.204,39.856,53.334,39.827z"/>
		<path fill-rule="evenodd" clip-rule="evenodd" fill="#0F1A39" d="M59.665,27.863c0.045,0.066,0.09,0.132,0.135,0.198
			c0.004,0.039,0.008,0.077,0.012,0.116c-0.106-0.022-0.119-0.141-0.196-0.191C59.632,27.945,59.648,27.905,59.665,27.863z"/>
		<path fill-rule="evenodd" clip-rule="evenodd" fill="#112F54" d="M52.978,31.312c-0.092,0.044-0.169,0.039-0.27,0.002
			C52.806,31.263,52.886,31.267,52.978,31.312z"/>
		<path fill-rule="evenodd" clip-rule="evenodd" fill="#103056" d="M59.075,28.718c-0.013-0.028-0.041-0.062-0.044-0.099
			c-0.003-0.039,0.037-0.044,0.064-0.025c0.023,0.017,0.046,0.045,0.052,0.073C59.156,28.703,59.133,28.726,59.075,28.718z"/>
		<path fill-rule="evenodd" clip-rule="evenodd" fill="#103056" d="M52.654,33.111c0.065-0.074,0.13-0.071,0.194,0.001
			C52.785,33.011,52.716,33.397,52.654,33.111z"/>
		<path fill-rule="evenodd" clip-rule="evenodd" fill="#152140" d="M55.431,38.478c-0.088-0.031-0.144-0.127-0.251-0.12
			C55.335,38.249,55.404,38.318,55.431,38.478z"/>
		<path fill-rule="evenodd" clip-rule="evenodd" fill="#F5F6F4" d="M54.871,38.557c0.006,0.141-0.052,0.196-0.191,0.143
			C54.743,38.651,54.808,38.604,54.871,38.557z"/>
		<path fill-rule="evenodd" clip-rule="evenodd" fill="#142040" d="M57.271,27.853c0,0.022,0.001,0.045,0.003,0.068
			c-0.082,0.097-0.195,0.065-0.295,0.065c-1.314,0.001-2.628,0-3.944-0.001c0.043-0.038,0.084-0.075,0.125-0.113
			c1.255-0.004,2.509-0.007,3.763-0.012C57.039,27.861,57.155,27.855,57.271,27.853z"/>
		<path fill-rule="evenodd" clip-rule="evenodd" fill="#131D3B" d="M52.274,20.71c0-0.021,0-0.042,0.002-0.062l-0.002,0
			c1.819,0.001,3.64,0.001,5.459,0.005c0.121,0,0.255-0.043,0.363,0.056c-0.065,0.048-0.141,0.032-0.213,0.032
			c-1.123,0.001-2.245,0-3.366,0c-0.073,0-0.147,0.013-0.215-0.027C53.627,20.713,52.951,20.712,52.274,20.71z"/>
		<path fill-rule="evenodd" clip-rule="evenodd" fill="#093458" d="M54.303,20.714c1.265-0.002,2.53-0.004,3.794-0.005
			c-0.351,0.143-0.718,0.029-1.076,0.065c-0.797,0-1.593,0.001-2.389-0.002C54.52,20.772,54.399,20.81,54.303,20.714z"/>
		<path fill-rule="evenodd" clip-rule="evenodd" fill="#0D345B" d="M57.33,21.591c-0.671,0-1.34,0-2.011,0
			c0.329-0.123,0.671-0.025,1.006-0.058c0.232,0,0.463,0,0.696,0C57.14,21.467,57.26,21.394,57.33,21.591z"/>
		<path fill-rule="evenodd" clip-rule="evenodd" fill="#0C345A" d="M54.421,21.592c-0.462,0.001-0.922,0.002-1.383,0.003
			C53.499,21.492,53.959,21.498,54.421,21.592z"/>
		<path fill-rule="evenodd" clip-rule="evenodd" fill="#131C39" d="M57.149,21.98c0.044-0.044,0.089-0.088,0.135-0.131
			c0.092,0.209-0.169,0.234-0.2,0.38c-0.181,0.082-0.253,0.332-0.496,0.32c-0.009-0.007-0.017-0.014-0.027-0.02
			c0.012-0.021,0.028-0.035,0.051-0.041c0.074-0.019,0.12-0.069,0.159-0.131C56.87,22.205,56.994,22.077,57.149,21.98z"/>
		<path fill-rule="evenodd" clip-rule="evenodd" fill="#112E53" d="M50.817,21.66c-0.098-0.085-0.127-0.209-0.184-0.317
			c0.164,0.01,0.32,0.031,0.312,0.254C50.942,21.702,50.879,21.679,50.817,21.66z"/>
		<path fill-rule="evenodd" clip-rule="evenodd" fill="#0A112B" d="M51.967,29.727c-0.005,0.249-0.144,0.475-0.121,0.729
			c-0.153-0.298,0.003-0.554,0.113-0.817C51.982,29.667,51.985,29.696,51.967,29.727z"/>
		<path fill-rule="evenodd" clip-rule="evenodd" fill="#112E53" d="M57.233,22.706c0.163,0.067,0.215,0.236,0.386,0.224
			C57.352,23.048,57.325,23.034,57.233,22.706z"/>
		<path fill-rule="evenodd" clip-rule="evenodd" fill="#0C345A" d="M55.242,21.592c-0.248,0-0.499,0-0.748,0
			C54.743,21.5,54.994,21.5,55.242,21.592z"/>
		<path fill-rule="evenodd" clip-rule="evenodd" fill="#162441" d="M51.967,29.727c-0.002-0.029-0.005-0.058-0.008-0.088
			c0.041-0.14-0.031-0.336,0.192-0.384C52.09,29.413,52.029,29.57,51.967,29.727z"/>
		<path fill-rule="evenodd" clip-rule="evenodd" fill="#F5F5F4" d="M55.058,23.498c0.123-0.042,0.239-0.113,0.377-0.08
			c-0.061,0.056-0.074,0.168-0.189,0.157C55.161,23.6,55.074,23.636,55.058,23.498z"/>
		<path fill-rule="evenodd" clip-rule="evenodd" fill="#1D2B4A" d="M55.058,23.498c0.034,0.096,0.129,0.043,0.188,0.077
			c-0.224,0.197-0.271-0.047-0.375-0.148C54.944,23.422,55.004,23.455,55.058,23.498z"/>
		<path fill-rule="evenodd" clip-rule="evenodd" fill="#101D3B" d="M55.875,23.114c0.016-0.118,0.182-0.072,0.2-0.186
			c0.019-0.055,0.055-0.092,0.114-0.102c0.027,0.004,0.051,0.017,0.069,0.038C56.17,23.006,56.069,23.132,55.875,23.114z"/>
		<path fill-rule="evenodd" clip-rule="evenodd" fill="#192441" d="M54.169,22.801c0.061,0.062,0.122,0.124,0.185,0.185
			c-0.204,0.001-0.317-0.107-0.363-0.297l-0.008-0.022C54.094,22.645,54.13,22.727,54.169,22.801z"/>
		<path fill-rule="evenodd" clip-rule="evenodd" fill="#192442" d="M56.258,22.864c-0.022,0-0.042-0.001-0.061-0.002
			c-0.02-0.058,0.005-0.08,0.061-0.077c0.06-0.019,0.108-0.052,0.135-0.11c0.043-0.072,0.071-0.164,0.186-0.127l0.009,0.001
			C56.537,22.715,56.437,22.831,56.258,22.864z"/>
		<path fill-rule="evenodd" clip-rule="evenodd" fill="#111B3B" d="M54.368,22.995c0.148-0.038,0.126,0.126,0.205,0.171
			C54.444,23.182,54.376,23.124,54.368,22.995z"/>
		<path fill-rule="evenodd" clip-rule="evenodd" fill="#103056" d="M50.154,30.881c-0.024-0.033-0.058-0.056-0.056-0.077
			c0-0.022,0.037-0.057,0.056-0.057c0.021,0,0.057,0.036,0.058,0.057C50.214,30.825,50.181,30.848,50.154,30.881z"/>
		<path fill-rule="evenodd" clip-rule="evenodd" fill="#103056" d="M51.018,30.521c0.032-0.024,0.05-0.049,0.073-0.054
			c0.045-0.01,0.079,0.014,0.092,0.057c0.003,0.009,0.05,0.054-0.013,0.046C51.124,30.563,51.081,30.541,51.018,30.521z"/>
		<path fill-rule="evenodd" clip-rule="evenodd" fill="#0A112C" d="M58.676,43.865c-0.023-0.018-0.044-0.04-0.068-0.061
			c-0.11-0.055-0.228-0.027-0.342-0.027c-1.798-0.004-3.596,0-5.395-0.004c-0.115,0-0.23,0.02-0.344-0.019
			c-0.273,0-0.545-0.002-0.818-0.002c-0.021-0.014-0.028-0.029-0.022-0.046c0.005-0.017,0.013-0.024,0.02-0.024
			c2.23-0.002,4.459-0.002,6.69,0C58.515,43.686,58.707,43.618,58.676,43.865z"/>
		<path fill-rule="evenodd" clip-rule="evenodd" fill="#0A122D" d="M51.902,42.679c2.191-0.002,4.382-0.005,6.572-0.009
			c0.02,0.013,0.028,0.026,0.021,0.038c-0.008,0.013-0.014,0.019-0.02,0.019c-2.101,0.002-4.201,0.004-6.303,0.004
			C52.08,42.732,51.981,42.755,51.902,42.679z"/>
		<path fill-rule="evenodd" clip-rule="evenodd" fill="#192541" d="M60.377,44.321c0-0.024-0.002-0.049-0.004-0.072
			c0.019-0.087,0.038-0.173,0.057-0.258c-0.036-0.313-0.038-0.623,0-0.935c-0.082-0.509-0.164-1.016-0.246-1.525
			c0.017-0.027,0.034-0.027,0.05,0c0.067,0.253,0.134,0.509,0.202,0.762c0.035,0.396,0.078,0.793,0.103,1.189
			C60.556,43.772,60.568,44.067,60.377,44.321z"/>
		<path fill-rule="evenodd" clip-rule="evenodd" fill="#0F3157" d="M51.137,41.908c0.008,0.084-0.182,0.198,0.041,0.249
			c0.025,0.008,0.014,0.092-0.031,0.103c-0.126,0.022-0.271-0.159-0.385,0.036c-0.038-0.103-0.228,0.023-0.212-0.121
			c0.013-0.124,0.12-0.249,0.251-0.228C50.924,41.968,51.025,41.918,51.137,41.908z"/>
		<path fill-rule="evenodd" clip-rule="evenodd" fill="#0F385E" d="M58.032,41.085c-0.63,0-1.261-0.003-1.893-0.003
			c0.422-0.135,0.853-0.037,1.28-0.053C57.621,41.022,57.838,40.963,58.032,41.085z"/>
		<path fill-rule="evenodd" clip-rule="evenodd" fill="#132141" d="M56.58,39.441c-0.026-0.057-0.066-0.099-0.132-0.112
			c-0.057,0.005-0.081-0.019-0.067-0.077c0.411,0.136,0.671,0.434,0.854,0.81l-0.017-0.005l-0.01,0.014
			C56.934,39.925,56.78,39.659,56.58,39.441z"/>
		<path fill-rule="evenodd" clip-rule="evenodd" fill="#202B49" d="M51.514,44.375c-0.033,0.093-0.108,0.152-0.189,0.203
			c-0.109,0.018-0.184,0.128-0.305,0.119c-0.162,0.044-0.321,0.036-0.484,0.004c-0.033-0.004-0.064-0.009-0.097-0.015
			c0.002-0.018,0.006-0.041,0.009-0.06c0.369,0.007,0.753,0.06,1.005-0.312C51.509,44.3,51.538,44.31,51.514,44.375z"/>
		<path fill-rule="evenodd" clip-rule="evenodd" fill="#1E2D4C" d="M51.514,44.375c-0.02-0.021-0.042-0.042-0.061-0.061
			c0.179-0.174,0.027-0.479,0.254-0.631c0.001,0.024,0.001,0.046,0.002,0.07c0.018,0.22-0.069,0.412-0.149,0.605
			C51.544,44.361,51.528,44.365,51.514,44.375z"/>
		<path fill-rule="evenodd" clip-rule="evenodd" fill="#0E3B61" d="M60.43,43.055c0,0.312,0,0.622,0,0.935
			C60.34,43.677,60.339,43.367,60.43,43.055z"/>
		<path fill-rule="evenodd" clip-rule="evenodd" fill="#0F3157" d="M50.988,41.656c0.116,0.097,0.239,0.048,0.262,0.17
			c0.002,0.02-0.032,0.064-0.053,0.066C51.085,41.903,51.039,41.831,50.988,41.656z"/>
		<path fill-rule="evenodd" clip-rule="evenodd" fill="#E8E6E7" d="M56.382,39.252c0.022,0.028,0.046,0.051,0.067,0.077
			c-0.201,0.025-0.28-0.093-0.309-0.269c0.113-0.036,0.129,0.069,0.18,0.124C56.34,39.206,56.36,39.231,56.382,39.252z"/>
		<path fill-rule="evenodd" clip-rule="evenodd" fill="#162746" d="M60.234,41.53c-0.017,0-0.033,0-0.05,0
			c-0.061-0.129-0.124-0.256-0.185-0.385c0.014-0.026,0.034-0.048,0.06-0.063C60.17,41.211,60.188,41.376,60.234,41.53z"/>
		<path fill-rule="evenodd" clip-rule="evenodd" fill="#112342" d="M59.116,44.558c-0.002,0.022-0.004,0.043-0.006,0.065
			c-0.114-0.053-0.194-0.143-0.252-0.249C59.007,44.344,59.034,44.489,59.116,44.558z"/>
		<path fill-rule="evenodd" clip-rule="evenodd" fill="#121E3D" d="M56.319,39.183c-0.06-0.042-0.12-0.083-0.18-0.124
			c-0.03-0.037-0.059-0.074-0.088-0.11C56.22,38.937,56.297,39.028,56.319,39.183z"/>
		<path fill-rule="evenodd" clip-rule="evenodd" fill="#101937" d="M60.06,41.082c-0.02,0.022-0.041,0.042-0.06,0.063
			c0.008-0.103-0.127-0.199-0.02-0.309C60.007,40.918,60.033,41,60.06,41.082z"/>
		<path fill-rule="evenodd" clip-rule="evenodd" fill="#111B39" d="M58.743,44.186c-0.015-0.061-0.031-0.121-0.045-0.18
			C58.853,44.03,58.794,44.11,58.743,44.186z"/>
		<path fill-rule="evenodd" clip-rule="evenodd" fill="#0F3157" d="M55.531,37.757c0.021,0.042,0.047,0.074,0.051,0.107
			c0.006,0.038-0.037,0.049-0.058,0.031c-0.024-0.019-0.095,0.005-0.07-0.063C55.463,37.808,55.494,37.793,55.531,37.757z"/>
		<path fill-rule="evenodd" clip-rule="evenodd" fill="#09365B" d="M58.601,19.001c-2.233-0.001-4.467-0.002-6.701-0.003
			c0.096-0.095,0.219-0.057,0.331-0.057c2.013-0.002,4.027-0.002,6.041,0C58.382,18.941,58.506,18.902,58.601,19.001z"/>
		<path fill-rule="evenodd" clip-rule="evenodd" fill="#121E39" d="M50.444,21.02c-0.019,0.023-0.038,0.047-0.056,0.069
			c-0.195-0.514-0.363-1.036-0.444-1.582c0.018-0.042,0.036-0.084,0.054-0.127C50.126,19.932,50.252,20.485,50.444,21.02z"/>
		<path fill-rule="evenodd" clip-rule="evenodd" fill="#0D1833" d="M50.946,17.092c0.084,0.03,0.168,0.061,0.251,0.092
			c-0.047,0.014-0.105,0.053-0.142,0.039c-0.396-0.144-0.707,0.024-1.001,0.261c-0.015,0.001-0.028,0.002-0.044,0.003
			C50.215,17.102,50.575,17.082,50.946,17.092z"/>
		<path fill-rule="evenodd" clip-rule="evenodd" fill="#0C1631" d="M59.108,17.225c0-0.017,0.002-0.035,0.008-0.053
			c0.103-0.026,0.206-0.052,0.31-0.078c0.126-0.035,0.253-0.034,0.379-0.001c0.084,0.031,0.168,0.061,0.251,0.091
			c-0.316,0.033-0.645-0.056-0.946,0.107c-0.019-0.014-0.027-0.029-0.02-0.043C59.095,17.233,59.101,17.225,59.108,17.225z"/>
		<path fill-rule="evenodd" clip-rule="evenodd" fill="#101C3A" d="M58.424,19.826c0.037,0.02,0.074,0.039,0.111,0.059
			c-0.082,0.189-0.161,0.379-0.247,0.566c-0.022,0.047-0.043,0.131-0.131,0.066C58.247,20.287,58.336,20.057,58.424,19.826z"/>
		<path fill-rule="evenodd" clip-rule="evenodd" fill="#112F54" d="M57.33,21.591c-0.089-0.096-0.206-0.043-0.309-0.058
			c-0.029-0.213,0.124-0.139,0.232-0.154c0.215-0.032,0.094,0.148,0.146,0.218C57.376,21.595,57.353,21.593,57.33,21.591z"/>
		<path fill-rule="evenodd" clip-rule="evenodd" fill="#172440" d="M52.136,20.269c0.047,0.103,0.093,0.208,0.139,0.312
			c0,0.022,0,0.045,0,0.068l0.002,0C52.151,20.55,52.034,20.45,52.136,20.269z"/>
		<path fill-rule="evenodd" clip-rule="evenodd" fill="#112F54" d="M51.614,21.251c-0.028,0.013-0.064,0.041-0.1,0.044
			c-0.04,0.004-0.043-0.037-0.025-0.063c0.017-0.023,0.045-0.045,0.073-0.052C51.597,21.171,51.621,21.193,51.614,21.251z"/>
		<path fill-rule="evenodd" clip-rule="evenodd" fill="#0C1530" d="M51.631,17.676c0.005,0.123,0.011,0.247,0.017,0.37
			C51.54,17.928,51.556,17.803,51.631,17.676z"/>
		<path fill-rule="evenodd" clip-rule="evenodd" fill="#131E3D" d="M59.108,17.225c0,0.022,0.001,0.044,0.001,0.066
			c-0.054,0.056-0.056,0.193-0.191,0.126C58.954,17.327,59.03,17.275,59.108,17.225z"/>
		<path fill-rule="evenodd" clip-rule="evenodd" fill="#112F54" d="M51.58,21.5c0.014,0.049,0.034,0.078,0.028,0.1
			c-0.005,0.021-0.037,0.039-0.061,0.048c-0.012,0.004-0.032-0.016-0.048-0.025C51.514,21.6,51.529,21.578,51.58,21.5z"/>
		<path fill-rule="evenodd" clip-rule="evenodd" fill="#112F54" d="M53.857,28.81c-0.336,0-0.675,0-1.012,0
			c0.115-0.213,0.316,0.009,0.456-0.103c-0.014-0.075-0.08-0.156-0.01-0.273c0.116,0.168,0.243,0.399,0.392,0.035
			c0.014-0.035,0.075-0.015,0.102,0.025c0.023,0.035,0.049,0.077,0.01,0.113c-0.042,0.04-0.092,0.072-0.144,0.111
			C53.723,28.765,53.815,28.732,53.857,28.81z"/>
		<path fill-rule="evenodd" clip-rule="evenodd" fill="#112F54" d="M54.135,28.186c-0.06,0.188,0.093,0.251,0.219,0.369
			c-0.208,0.051-0.304-0.101-0.461-0.119C53.964,28.326,53.999,28.231,54.135,28.186z"/>
		<path fill-rule="evenodd" clip-rule="evenodd" fill="#112F54" d="M53.035,28.119c0.183-0.167,0.335,0.103,0.544-0.021
			C53.356,28.418,53.198,28.219,53.035,28.119z"/>
		<path fill-rule="evenodd" clip-rule="evenodd" fill="#1A2541" d="M59.17,27.107c0.023,0.04,0.046,0.079,0.067,0.119
			c-0.159,0.03-0.169-0.09-0.196-0.194c0-0.018,0.001-0.037,0.004-0.055C59.086,27.02,59.129,27.064,59.17,27.107z"/>
		<path fill-rule="evenodd" clip-rule="evenodd" fill="#E4E3E0" d="M52.528,43.755c1.973-0.003,3.945-0.006,5.917-0.007
			c0.059,0,0.128-0.018,0.163,0.056c-1.936,0.002-3.872,0.002-5.809,0.002C52.707,43.805,52.609,43.827,52.528,43.755z"/>
		<path fill-rule="evenodd" clip-rule="evenodd" fill="#EAE7E6" d="M58.223,18.042c-2.151,0-4.303,0-6.454,0
			c0.091-0.078,0.2-0.051,0.303-0.051c1.95-0.001,3.899-0.001,5.849,0C58.023,17.991,58.132,17.964,58.223,18.042z"/>
		<path fill-rule="evenodd" clip-rule="evenodd" fill="#E5E2E0" d="M59.804,17.093c-0.126,0.001-0.252,0.001-0.379,0.001
			C59.552,17.013,59.678,17.013,59.804,17.093z"/>
		<path fill-rule="evenodd" clip-rule="evenodd" fill="#23304B" d="M50.536,44.701c0.161,0,0.322-0.004,0.484-0.004
			C50.859,44.771,50.699,44.788,50.536,44.701z"/>
		<path fill-rule="evenodd" clip-rule="evenodd" fill="#F9F7F3" d="M54.364,38.951c0.062-0.048,0.124-0.097,0.185-0.144
			C54.568,38.959,54.501,38.998,54.364,38.951z"/>
		<path fill-rule="evenodd" clip-rule="evenodd" fill="#F9F9F6" d="M54.049,39.206c0.062-0.048,0.123-0.097,0.184-0.147
			C54.253,39.211,54.183,39.248,54.049,39.206z"/>
		<path fill-rule="evenodd" clip-rule="evenodd" fill="#FAF9F7" d="M53.667,39.508c0.061-0.044,0.122-0.088,0.183-0.132
			C53.85,39.527,53.814,39.552,53.667,39.508z"/>
		<path fill-rule="evenodd" clip-rule="evenodd" fill="#E3E2E4" d="M58.253,30.404c-0.01,0.018-0.022,0.034-0.036,0.05
			c-2.086-0.004-4.173-0.007-6.258-0.009c0.05-0.047,0.112-0.052,0.175-0.052C54.175,30.397,56.212,30.4,58.253,30.404z"/>
		<path fill-rule="evenodd" clip-rule="evenodd" fill="#F1F3F1" d="M57.149,21.98c-0.107,0.145-0.231,0.273-0.379,0.377
			C56.815,22.149,56.94,22.022,57.149,21.98z"/>
		<path fill-rule="evenodd" clip-rule="evenodd" fill="#F8F9F7" d="M56.258,22.785c-0.022,0.026-0.042,0.051-0.061,0.077
			c-0.039,0.022-0.081,0.044-0.121,0.066C56.055,22.775,56.122,22.737,56.258,22.785z"/>
		<path fill-rule="evenodd" clip-rule="evenodd" fill="#FAFAF6" d="M54.169,22.801c-0.063-0.045-0.124-0.089-0.186-0.134
			C54.126,22.599,54.183,22.65,54.169,22.801z"/>
		<path fill-rule="evenodd" clip-rule="evenodd" fill="#FAF9F7" d="M56.579,22.548c-0.062,0.042-0.123,0.085-0.186,0.127
			c-0.033-0.186,0.104-0.172,0.218-0.186C56.601,22.508,56.591,22.528,56.579,22.548z"/>
		<path fill-rule="evenodd" clip-rule="evenodd" fill="#DCDAD8" d="M58.286,42.54c-0.21,0-0.42,0-0.631,0
			C57.865,42.445,58.075,42.444,58.286,42.54z"/>
	</g>
</g>
</svg>
